STARTFONT 2.1
COMMENT
COMMENT Converted from OpenType font "NotoSansCherokee-Regular.ttf" by "otf2bdf 3.0".
COMMENT
FONT -FreeType-Noto Sans Cherokee-Medium-R-Normal--17-120-100-100-P-90-ISO10646-1
SIZE 12 100 100
FONTBOUNDINGBOX 30 21 -8 -4
STARTPROPERTIES 19
FOUNDRY "FreeType"
FAMILY_NAME "Noto Sans Cherokee"
WEIGHT_NAME "Medium"
SLANT "R"
SETWIDTH_NAME "Normal"
ADD_STYLE_NAME ""
PIXEL_SIZE 17
POINT_SIZE 120
RESOLUTION_X 100
RESOLUTION_Y 100
SPACING "P"
AVERAGE_WIDTH 90
CHARSET_REGISTRY "ISO10646"
CHARSET_ENCODING "1"
FONT_ASCENT 18
FONT_DESCENT 4
COPYRIGHT "Copyright 2022 The Noto Project Authors (https://github.com/notofonts/cherokee)"
_OTF_FONTFILE "NotoSansCherokee-Regular.ttf"
_OTF_PSNAME "NotoSansCherokee-Regular"
ENDPROPERTIES
CHARS 511
STARTCHAR 0000
ENCODING 0
SWIDTH 0 0
DWIDTH 0 0
BBX 0 0 0 0
BITMAP
ENDCHAR
STARTCHAR 000D
ENCODING 13
SWIDTH 240 0
DWIDTH 4 0
BBX 0 0 0 0
BITMAP
ENDCHAR
STARTCHAR 0020
ENCODING 32
SWIDTH 240 0
DWIDTH 4 0
BBX 0 0 0 0
BITMAP
ENDCHAR
STARTCHAR 0021
ENCODING 33
SWIDTH 300 0
DWIDTH 5 0
BBX 2 12 1 0
BITMAP
C0
C0
40
40
40
40
40
40
00
00
C0
C0
ENDCHAR
STARTCHAR 0022
ENCODING 34
SWIDTH 420 0
DWIDTH 7 0
BBX 5 4 1 8
BITMAP
D8
D8
D8
88
ENDCHAR
STARTCHAR 0023
ENCODING 35
SWIDTH 660 0
DWIDTH 11 0
BBX 11 12 0 0
BITMAP
0880
0880
0980
0900
7FE0
1100
1100
FFC0
1200
3200
2200
2200
ENDCHAR
STARTCHAR 0024
ENCODING 36
SWIDTH 600 0
DWIDTH 10 0
BBX 8 13 1 -1
BITMAP
10
3C
7E
D0
D0
70
3E
13
13
93
FE
10
10
ENDCHAR
STARTCHAR 0025
ENCODING 37
SWIDTH 840 0
DWIDTH 14 0
BBX 12 12 1 0
BITMAP
7040
D880
8980
8900
8B00
9AE0
7490
0590
0990
1990
10B0
30E0
ENDCHAR
STARTCHAR 0026
ENCODING 38
SWIDTH 720 0
DWIDTH 12 0
BBX 11 12 1 0
BITMAP
3C00
6600
6200
6600
3C00
3800
6C60
C640
83C0
C180
C3C0
7C60
ENDCHAR
STARTCHAR 0027
ENCODING 39
SWIDTH 240 0
DWIDTH 4 0
BBX 2 4 1 8
BITMAP
C0
C0
C0
80
ENDCHAR
STARTCHAR 0028
ENCODING 40
SWIDTH 300 0
DWIDTH 5 0
BBX 4 14 1 -2
BITMAP
30
60
40
C0
C0
80
80
80
80
80
C0
C0
40
70
ENDCHAR
STARTCHAR 0029
ENCODING 41
SWIDTH 300 0
DWIDTH 5 0
BBX 3 14 1 -2
BITMAP
80
C0
40
60
20
20
20
20
20
20
60
60
40
C0
ENDCHAR
STARTCHAR 002A
ENCODING 42
SWIDTH 540 0
DWIDTH 9 0
BBX 8 7 1 5
BITMAP
10
10
92
FF
38
2C
66
ENDCHAR
STARTCHAR 002B
ENCODING 43
SWIDTH 600 0
DWIDTH 10 0
BBX 8 8 1 2
BITMAP
10
10
10
FF
10
10
10
10
ENDCHAR
STARTCHAR 002C
ENCODING 44
SWIDTH 300 0
DWIDTH 5 0
BBX 2 4 1 -2
BITMAP
C0
C0
80
80
ENDCHAR
STARTCHAR 002D
ENCODING 45
SWIDTH 300 0
DWIDTH 5 0
BBX 4 1 1 4
BITMAP
F0
ENDCHAR
STARTCHAR 002E
ENCODING 46
SWIDTH 300 0
DWIDTH 5 0
BBX 2 2 1 0
BITMAP
C0
C0
ENDCHAR
STARTCHAR 002F
ENCODING 47
SWIDTH 360 0
DWIDTH 6 0
BBX 6 12 0 0
BITMAP
0C
0C
08
18
10
10
30
20
60
60
40
C0
ENDCHAR
STARTCHAR 0030
ENCODING 48
SWIDTH 600 0
DWIDTH 10 0
BBX 8 12 1 0
BITMAP
3C
66
C2
C3
83
83
83
83
C3
C2
66
3C
ENDCHAR
STARTCHAR 0031
ENCODING 49
SWIDTH 600 0
DWIDTH 10 0
BBX 4 12 2 0
BITMAP
30
70
D0
90
10
10
10
10
10
10
10
10
ENDCHAR
STARTCHAR 0032
ENCODING 50
SWIDTH 600 0
DWIDTH 10 0
BBX 8 12 1 0
BITMAP
7C
C6
02
02
02
06
0C
18
30
60
C0
FF
ENDCHAR
STARTCHAR 0033
ENCODING 51
SWIDTH 600 0
DWIDTH 10 0
BBX 8 12 1 0
BITMAP
7C
C6
02
02
06
38
06
03
03
03
86
FC
ENDCHAR
STARTCHAR 0034
ENCODING 52
SWIDTH 600 0
DWIDTH 10 0
BBX 9 12 0 0
BITMAP
0300
0700
0F00
0B00
1300
3300
6300
4300
FF80
0300
0300
0300
ENDCHAR
STARTCHAR 0035
ENCODING 53
SWIDTH 600 0
DWIDTH 10 0
BBX 8 12 1 0
BITMAP
7E
40
40
40
C0
FC
06
03
03
03
86
FC
ENDCHAR
STARTCHAR 0036
ENCODING 54
SWIDTH 600 0
DWIDTH 10 0
BBX 8 12 1 0
BITMAP
1E
70
40
C0
FC
E6
C3
83
C3
C3
66
3C
ENDCHAR
STARTCHAR 0037
ENCODING 55
SWIDTH 600 0
DWIDTH 10 0
BBX 8 12 1 0
BITMAP
FF
03
02
06
04
0C
08
18
18
30
30
60
ENDCHAR
STARTCHAR 0038
ENCODING 56
SWIDTH 600 0
DWIDTH 10 0
BBX 8 12 1 0
BITMAP
3C
66
C2
C2
66
3C
6E
C3
83
83
C6
7C
ENDCHAR
STARTCHAR 0039
ENCODING 57
SWIDTH 600 0
DWIDTH 10 0
BBX 8 12 1 0
BITMAP
3C
C6
C2
83
83
C7
7F
03
02
06
0C
78
ENDCHAR
STARTCHAR 003A
ENCODING 58
SWIDTH 300 0
DWIDTH 5 0
BBX 2 9 1 0
BITMAP
C0
C0
00
00
00
00
00
C0
C0
ENDCHAR
STARTCHAR 003B
ENCODING 59
SWIDTH 300 0
DWIDTH 5 0
BBX 2 11 1 -2
BITMAP
C0
C0
00
00
00
00
00
C0
C0
80
80
ENDCHAR
STARTCHAR 003C
ENCODING 60
SWIDTH 600 0
DWIDTH 10 0
BBX 8 8 1 2
BITMAP
03
0E
38
E0
E0
38
0E
01
ENDCHAR
STARTCHAR 003D
ENCODING 61
SWIDTH 600 0
DWIDTH 10 0
BBX 8 4 1 4
BITMAP
FF
00
00
FF
ENDCHAR
STARTCHAR 003E
ENCODING 62
SWIDTH 600 0
DWIDTH 10 0
BBX 8 8 1 2
BITMAP
C0
70
1C
07
07
1C
E0
80
ENDCHAR
STARTCHAR 003F
ENCODING 63
SWIDTH 420 0
DWIDTH 7 0
BBX 7 12 0 0
BITMAP
7C
C6
06
06
04
0C
10
30
30
00
30
30
ENDCHAR
STARTCHAR 0040
ENCODING 64
SWIDTH 900 0
DWIDTH 15 0
BBX 13 13 1 -1
BITMAP
0FC0
3860
6010
47C8
CCC8
8888
9888
9888
88D8
CF70
4000
3040
1FC0
ENDCHAR
STARTCHAR 0041
ENCODING 65
SWIDTH 660 0
DWIDTH 11 0
BBX 11 12 0 0
BITMAP
0400
0E00
0A00
1B00
1300
1100
3180
3F80
6080
60C0
4040
C060
ENDCHAR
STARTCHAR 0042
ENCODING 66
SWIDTH 660 0
DWIDTH 11 0
BBX 8 12 2 0
BITMAP
FC
86
83
83
82
FC
86
83
83
83
87
FC
ENDCHAR
STARTCHAR 0043
ENCODING 67
SWIDTH 660 0
DWIDTH 11 0
BBX 9 12 1 0
BITMAP
1F80
3080
6000
C000
C000
C000
C000
C000
C000
6000
3080
1F80
ENDCHAR
STARTCHAR 0044
ENCODING 68
SWIDTH 720 0
DWIDTH 12 0
BBX 9 12 2 0
BITMAP
FC00
8700
8180
8180
8080
8080
8080
8080
8180
8100
8700
FC00
ENDCHAR
STARTCHAR 0045
ENCODING 69
SWIDTH 540 0
DWIDTH 9 0
BBX 6 12 2 0
BITMAP
FC
80
80
80
80
FC
80
80
80
80
80
FC
ENDCHAR
STARTCHAR 0046
ENCODING 70
SWIDTH 540 0
DWIDTH 9 0
BBX 6 12 2 0
BITMAP
FC
80
80
80
80
80
FC
80
80
80
80
80
ENDCHAR
STARTCHAR 0047
ENCODING 71
SWIDTH 720 0
DWIDTH 12 0
BBX 10 12 1 0
BITMAP
1FC0
30C0
6000
C000
C000
C000
C3C0
C040
C040
6040
3040
1FC0
ENDCHAR
STARTCHAR 0048
ENCODING 72
SWIDTH 780 0
DWIDTH 13 0
BBX 9 12 2 0
BITMAP
8180
8180
8180
8180
8180
FF80
8180
8180
8180
8180
8180
8180
ENDCHAR
STARTCHAR 0049
ENCODING 73
SWIDTH 360 0
DWIDTH 6 0
BBX 4 12 1 0
BITMAP
F0
60
60
60
60
60
60
60
60
60
60
F0
ENDCHAR
STARTCHAR 004A
ENCODING 74
SWIDTH 300 0
DWIDTH 5 0
BBX 4 15 -1 -3
BITMAP
10
10
10
10
10
10
10
10
10
10
10
10
10
30
E0
ENDCHAR
STARTCHAR 004B
ENCODING 75
SWIDTH 660 0
DWIDTH 11 0
BBX 9 12 2 0
BITMAP
8300
8600
8C00
9800
B000
B000
D000
9800
8C00
8600
8200
8380
ENDCHAR
STARTCHAR 004C
ENCODING 76
SWIDTH 540 0
DWIDTH 9 0
BBX 6 12 2 0
BITMAP
80
80
80
80
80
80
80
80
80
80
80
FC
ENDCHAR
STARTCHAR 004D
ENCODING 77
SWIDTH 900 0
DWIDTH 15 0
BBX 12 12 2 0
BITMAP
C070
C070
E070
A0F0
B0B0
91B0
9130
9930
8B30
8E30
8E30
8430
ENDCHAR
STARTCHAR 004E
ENCODING 78
SWIDTH 780 0
DWIDTH 13 0
BBX 9 12 2 0
BITMAP
C080
C080
E080
B080
9080
9880
8C80
8480
8680
8380
8180
8180
ENDCHAR
STARTCHAR 004F
ENCODING 79
SWIDTH 780 0
DWIDTH 13 0
BBX 11 12 1 0
BITMAP
1F00
31C0
6040
C060
C020
C020
C020
C060
C060
6040
31C0
1F00
ENDCHAR
STARTCHAR 0050
ENCODING 80
SWIDTH 600 0
DWIDTH 10 0
BBX 7 12 2 0
BITMAP
FC
86
82
82
82
86
FC
80
80
80
80
80
ENDCHAR
STARTCHAR 0051
ENCODING 81
SWIDTH 780 0
DWIDTH 13 0
BBX 11 14 1 -2
BITMAP
1F00
31C0
6040
C060
C020
C020
C020
C060
C060
6040
31C0
1F00
0180
01E0
ENDCHAR
STARTCHAR 0052
ENCODING 82
SWIDTH 660 0
DWIDTH 11 0
BBX 8 12 2 0
BITMAP
FC
86
82
82
82
86
FC
88
8C
86
82
83
ENDCHAR
STARTCHAR 0053
ENCODING 83
SWIDTH 540 0
DWIDTH 9 0
BBX 8 12 1 0
BITMAP
3E
C2
C0
C0
C0
78
1E
06
03
02
86
FC
ENDCHAR
STARTCHAR 0054
ENCODING 84
SWIDTH 540 0
DWIDTH 9 0
BBX 9 12 0 0
BITMAP
FF80
0800
0800
0800
0800
0800
0800
0800
0800
0800
0800
0800
ENDCHAR
STARTCHAR 0055
ENCODING 85
SWIDTH 720 0
DWIDTH 12 0
BBX 9 12 2 0
BITMAP
8180
8180
8180
8180
8180
8180
8180
8180
8180
8180
E300
3E00
ENDCHAR
STARTCHAR 0056
ENCODING 86
SWIDTH 600 0
DWIDTH 10 0
BBX 10 12 0 0
BITMAP
C0C0
40C0
4080
6180
2180
3100
3300
1200
1A00
1E00
0C00
0C00
ENDCHAR
STARTCHAR 0057
ENCODING 87
SWIDTH 960 0
DWIDTH 16 0
BBX 16 12 0 0
BITMAP
C183
4182
4386
62C6
6244
2644
266C
346C
3428
1C28
1838
1810
ENDCHAR
STARTCHAR 0058
ENCODING 88
SWIDTH 600 0
DWIDTH 10 0
BBX 10 12 0 0
BITMAP
C0C0
6180
3300
1200
1E00
0C00
0C00
1E00
3300
2100
6180
C0C0
ENDCHAR
STARTCHAR 0059
ENCODING 89
SWIDTH 600 0
DWIDTH 10 0
BBX 10 12 0 0
BITMAP
C0C0
4180
6100
3300
3200
1E00
0C00
0C00
0C00
0C00
0C00
0C00
ENDCHAR
STARTCHAR 005A
ENCODING 90
SWIDTH 600 0
DWIDTH 10 0
BBX 8 12 1 0
BITMAP
FF
03
06
04
0C
18
10
30
60
40
C0
FF
ENDCHAR
STARTCHAR 005B
ENCODING 91
SWIDTH 360 0
DWIDTH 6 0
BBX 4 14 1 -2
BITMAP
F0
C0
C0
C0
C0
C0
C0
C0
C0
C0
C0
C0
C0
F0
ENDCHAR
STARTCHAR 005C
ENCODING 92
SWIDTH 360 0
DWIDTH 6 0
BBX 6 12 0 0
BITMAP
C0
40
60
60
20
30
10
10
18
08
0C
0C
ENDCHAR
STARTCHAR 005D
ENCODING 93
SWIDTH 360 0
DWIDTH 6 0
BBX 4 14 0 -2
BITMAP
F0
10
10
10
10
10
10
10
10
10
10
10
10
F0
ENDCHAR
STARTCHAR 005E
ENCODING 94
SWIDTH 600 0
DWIDTH 10 0
BBX 8 8 1 4
BITMAP
10
18
28
2C
64
46
C2
83
ENDCHAR
STARTCHAR 005F
ENCODING 95
SWIDTH 480 0
DWIDTH 8 0
BBX 8 1 0 -2
BITMAP
FF
ENDCHAR
STARTCHAR 0060
ENCODING 96
SWIDTH 300 0
DWIDTH 5 0
BBX 3 3 1 10
BITMAP
80
C0
60
ENDCHAR
STARTCHAR 0061
ENCODING 97
SWIDTH 600 0
DWIDTH 10 0
BBX 7 9 1 0
BITMAP
7C
46
02
02
7E
C2
82
C6
7A
ENDCHAR
STARTCHAR 0062
ENCODING 98
SWIDTH 600 0
DWIDTH 10 0
BBX 9 12 1 0
BITMAP
C000
C000
C000
DE00
E300
C100
C100
C180
C100
C100
E300
DE00
ENDCHAR
STARTCHAR 0063
ENCODING 99
SWIDTH 480 0
DWIDTH 8 0
BBX 7 9 1 0
BITMAP
3E
64
C0
C0
80
C0
C0
62
3C
ENDCHAR
STARTCHAR 0064
ENCODING 100
SWIDTH 600 0
DWIDTH 10 0
BBX 8 12 1 0
BITMAP
01
01
01
3D
67
C3
C3
81
C3
C3
67
3D
ENDCHAR
STARTCHAR 0065
ENCODING 101
SWIDTH 600 0
DWIDTH 10 0
BBX 8 9 1 0
BITMAP
3C
66
C2
C3
FF
C0
C0
62
3E
ENDCHAR
STARTCHAR 0066
ENCODING 102
SWIDTH 360 0
DWIDTH 6 0
BBX 7 12 0 0
BITMAP
1E
30
20
FC
20
20
20
20
20
20
20
20
ENDCHAR
STARTCHAR 0067
ENCODING 103
SWIDTH 600 0
DWIDTH 10 0
BBX 8 13 1 -4
BITMAP
3D
67
C3
C3
81
C1
C3
67
3D
01
03
46
7C
ENDCHAR
STARTCHAR 0068
ENCODING 104
SWIDTH 660 0
DWIDTH 11 0
BBX 8 12 1 0
BITMAP
C0
C0
C0
DE
E3
C1
C1
C1
C1
C1
C1
C1
ENDCHAR
STARTCHAR 0069
ENCODING 105
SWIDTH 240 0
DWIDTH 4 0
BBX 2 12 1 0
BITMAP
C0
C0
00
C0
C0
C0
C0
C0
C0
C0
C0
C0
ENDCHAR
STARTCHAR 006A
ENCODING 106
SWIDTH 240 0
DWIDTH 4 0
BBX 4 16 -1 -4
BITMAP
30
30
00
30
30
30
30
30
30
30
30
30
30
30
30
E0
ENDCHAR
STARTCHAR 006B
ENCODING 107
SWIDTH 540 0
DWIDTH 9 0
BBX 8 12 1 0
BITMAP
C0
C0
C0
C7
CC
C8
D0
F0
D8
CC
C6
C3
ENDCHAR
STARTCHAR 006C
ENCODING 108
SWIDTH 240 0
DWIDTH 4 0
BBX 2 12 1 0
BITMAP
C0
C0
C0
C0
C0
C0
C0
C0
C0
C0
C0
C0
ENDCHAR
STARTCHAR 006D
ENCODING 109
SWIDTH 960 0
DWIDTH 16 0
BBX 14 9 1 0
BITMAP
DEF0
E398
C308
C30C
C30C
C30C
C30C
C30C
C30C
ENDCHAR
STARTCHAR 006E
ENCODING 110
SWIDTH 660 0
DWIDTH 11 0
BBX 8 9 1 0
BITMAP
DE
E3
C1
C1
C1
C1
C1
C1
C1
ENDCHAR
STARTCHAR 006F
ENCODING 111
SWIDTH 600 0
DWIDTH 10 0
BBX 8 9 1 0
BITMAP
3C
62
C3
C1
81
C1
C3
66
3C
ENDCHAR
STARTCHAR 0070
ENCODING 112
SWIDTH 600 0
DWIDTH 10 0
BBX 9 13 1 -4
BITMAP
DE00
E300
C100
C100
C180
C100
C100
E300
DE00
C000
C000
C000
C000
ENDCHAR
STARTCHAR 0071
ENCODING 113
SWIDTH 600 0
DWIDTH 10 0
BBX 8 13 1 -4
BITMAP
3D
67
C3
C3
81
C3
C3
67
3D
01
01
01
01
ENDCHAR
STARTCHAR 0072
ENCODING 114
SWIDTH 420 0
DWIDTH 7 0
BBX 6 9 1 0
BITMAP
DC
E0
C0
C0
C0
C0
C0
C0
C0
ENDCHAR
STARTCHAR 0073
ENCODING 115
SWIDTH 480 0
DWIDTH 8 0
BBX 6 9 1 0
BITMAP
7C
C4
80
E0
38
0C
04
8C
F8
ENDCHAR
STARTCHAR 0074
ENCODING 116
SWIDTH 360 0
DWIDTH 6 0
BBX 6 11 0 0
BITMAP
20
20
FC
20
20
20
20
20
20
30
3C
ENDCHAR
STARTCHAR 0075
ENCODING 117
SWIDTH 660 0
DWIDTH 11 0
BBX 8 9 1 0
BITMAP
C1
C1
C1
C1
C1
C1
C3
67
3D
ENDCHAR
STARTCHAR 0076
ENCODING 118
SWIDTH 540 0
DWIDTH 9 0
BBX 9 9 0 0
BITMAP
C180
4300
6300
6200
2600
3600
3400
1C00
1800
ENDCHAR
STARTCHAR 0077
ENCODING 119
SWIDTH 780 0
DWIDTH 13 0
BBX 13 9 0 0
BITMAP
C308
4718
4510
6590
6CB0
2CB0
28A0
38E0
1860
ENDCHAR
STARTCHAR 0078
ENCODING 120
SWIDTH 540 0
DWIDTH 9 0
BBX 9 9 0 0
BITMAP
E380
2200
3600
1C00
0800
1400
3600
6300
C180
ENDCHAR
STARTCHAR 0079
ENCODING 121
SWIDTH 540 0
DWIDTH 9 0
BBX 9 13 0 -4
BITMAP
C180
4100
6300
6200
2600
3600
1400
1C00
1800
1800
1800
3000
E000
ENDCHAR
STARTCHAR 007A
ENCODING 122
SWIDTH 480 0
DWIDTH 8 0
BBX 6 9 1 0
BITMAP
FC
0C
08
18
30
60
40
C0
FC
ENDCHAR
STARTCHAR 007B
ENCODING 123
SWIDTH 360 0
DWIDTH 6 0
BBX 6 14 0 -2
BITMAP
0C
18
10
10
10
10
30
C0
30
10
10
10
10
1C
ENDCHAR
STARTCHAR 007C
ENCODING 124
SWIDTH 540 0
DWIDTH 9 0
BBX 1 16 4 -4
BITMAP
80
80
80
80
80
80
80
80
80
80
80
80
80
80
80
80
ENDCHAR
STARTCHAR 007D
ENCODING 125
SWIDTH 360 0
DWIDTH 6 0
BBX 5 14 1 -2
BITMAP
C0
60
60
60
60
60
20
18
20
60
60
60
60
C0
ENDCHAR
STARTCHAR 007E
ENCODING 126
SWIDTH 600 0
DWIDTH 10 0
BBX 8 2 1 5
BITMAP
F1
9F
ENDCHAR
STARTCHAR 00A0
ENCODING 160
SWIDTH 240 0
DWIDTH 4 0
BBX 0 0 0 0
BITMAP
ENDCHAR
STARTCHAR 00A1
ENCODING 161
SWIDTH 300 0
DWIDTH 5 0
BBX 2 12 1 -3
BITMAP
C0
C0
00
00
40
40
40
40
40
C0
C0
C0
ENDCHAR
STARTCHAR 00A2
ENCODING 162
SWIDTH 600 0
DWIDTH 10 0
BBX 6 12 2 0
BITMAP
10
7C
C4
80
80
80
80
80
C4
7C
10
10
ENDCHAR
STARTCHAR 00A3
ENCODING 163
SWIDTH 600 0
DWIDTH 10 0
BBX 8 12 1 0
BITMAP
1F
32
60
60
60
60
FC
60
60
60
C0
FF
ENDCHAR
STARTCHAR 00A5
ENCODING 165
SWIDTH 600 0
DWIDTH 10 0
BBX 9 12 0 0
BITMAP
C080
6180
2100
3200
1200
1C00
3F00
0C00
0C00
3F00
0C00
0C00
ENDCHAR
STARTCHAR 00A7
ENCODING 167
SWIDTH 540 0
DWIDTH 9 0
BBX 7 12 1 0
BITMAP
7C
C4
C0
70
5C
86
C6
7C
0C
06
84
F8
ENDCHAR
STARTCHAR 00A8
ENCODING 168
SWIDTH 600 0
DWIDTH 10 0
BBX 4 1 3 11
BITMAP
90
ENDCHAR
STARTCHAR 00A9
ENCODING 169
SWIDTH 840 0
DWIDTH 14 0
BBX 12 12 1 0
BITMAP
1F80
30C0
4720
8910
9810
9010
9010
9010
9810
4F20
30E0
1F80
ENDCHAR
STARTCHAR 00AA
ENCODING 170
SWIDTH 360 0
DWIDTH 6 0
BBX 4 6 1 6
BITMAP
F0
10
F0
90
90
F0
ENDCHAR
STARTCHAR 00AB
ENCODING 171
SWIDTH 540 0
DWIDTH 9 0
BBX 7 7 1 1
BITMAP
32
64
C8
98
C8
64
36
ENDCHAR
STARTCHAR 00AE
ENCODING 174
SWIDTH 840 0
DWIDTH 14 0
BBX 12 12 1 0
BITMAP
1F80
30C0
4F20
8910
8990
8910
8F10
8B10
8910
48A0
30E0
1F80
ENDCHAR
STARTCHAR 00AF
ENCODING 175
SWIDTH 540 0
DWIDTH 9 0
BBX 9 1 0 13
BITMAP
FF80
ENDCHAR
STARTCHAR 00B0
ENCODING 176
SWIDTH 420 0
DWIDTH 7 0
BBX 5 5 1 7
BITMAP
70
C8
88
88
78
ENDCHAR
STARTCHAR 00B4
ENCODING 180
SWIDTH 300 0
DWIDTH 5 0
BBX 3 3 1 10
BITMAP
60
40
80
ENDCHAR
STARTCHAR 00B6
ENCODING 182
SWIDTH 660 0
DWIDTH 11 0
BBX 8 15 1 -3
BITMAP
3F
7D
FD
FD
FD
FD
FD
7D
05
05
05
05
05
05
05
ENDCHAR
STARTCHAR 00B7
ENCODING 183
SWIDTH 300 0
DWIDTH 5 0
BBX 2 2 1 5
BITMAP
C0
C0
ENDCHAR
STARTCHAR 00B8
ENCODING 184
SWIDTH 240 0
DWIDTH 4 0
BBX 4 4 0 -4
BITMAP
60
60
30
E0
ENDCHAR
STARTCHAR 00BA
ENCODING 186
SWIDTH 360 0
DWIDTH 6 0
BBX 5 6 1 6
BITMAP
70
98
88
88
98
70
ENDCHAR
STARTCHAR 00BB
ENCODING 187
SWIDTH 540 0
DWIDTH 9 0
BBX 7 7 1 1
BITMAP
98
C8
64
36
64
C8
98
ENDCHAR
STARTCHAR 00BF
ENCODING 191
SWIDTH 420 0
DWIDTH 7 0
BBX 7 12 0 -3
BITMAP
18
18
00
08
08
18
30
60
C0
C0
42
7E
ENDCHAR
STARTCHAR 00C0
ENCODING 192
SWIDTH 660 0
DWIDTH 11 0
BBX 11 16 0 0
BITMAP
1800
0C00
0600
0000
0400
0E00
0A00
1B00
1300
1100
3180
3F80
6080
60C0
4040
C060
ENDCHAR
STARTCHAR 00C1
ENCODING 193
SWIDTH 660 0
DWIDTH 11 0
BBX 11 16 0 0
BITMAP
0300
0600
0C00
0000
0400
0E00
0A00
1B00
1300
1100
3180
3F80
6080
60C0
4040
C060
ENDCHAR
STARTCHAR 00C2
ENCODING 194
SWIDTH 660 0
DWIDTH 11 0
BBX 11 16 0 0
BITMAP
0400
0E00
1300
0000
0400
0E00
0A00
1B00
1300
1100
3180
3F80
6080
60C0
4040
C060
ENDCHAR
STARTCHAR 00C3
ENCODING 195
SWIDTH 660 0
DWIDTH 11 0
BBX 11 15 0 0
BITMAP
1D80
2700
0000
0400
0E00
0A00
1B00
1300
1100
3180
3F80
6080
60C0
4040
C060
ENDCHAR
STARTCHAR 00C4
ENCODING 196
SWIDTH 660 0
DWIDTH 11 0
BBX 11 15 0 0
BITMAP
1B00
0000
0000
0400
0E00
0A00
1B00
1300
1100
3180
3F80
6080
60C0
4040
C060
ENDCHAR
STARTCHAR 00C5
ENCODING 197
SWIDTH 660 0
DWIDTH 11 0
BBX 11 14 0 0
BITMAP
0E00
1200
0E00
0E00
0A00
1B00
1300
1100
3180
3F80
6080
60C0
4040
C060
ENDCHAR
STARTCHAR 00C6
ENCODING 198
SWIDTH 900 0
DWIDTH 15 0
BBX 14 12 0 0
BITMAP
03FC
0680
0480
0C80
0880
18FC
1080
3F80
2080
6080
4080
C0FC
ENDCHAR
STARTCHAR 00C7
ENCODING 199
SWIDTH 660 0
DWIDTH 11 0
BBX 9 16 1 -4
BITMAP
1F80
3080
6000
C000
C000
C000
C000
C000
C000
6000
3080
1F80
0400
0E00
0200
0C00
ENDCHAR
STARTCHAR 00C8
ENCODING 200
SWIDTH 540 0
DWIDTH 9 0
BBX 6 16 2 0
BITMAP
60
20
10
00
FC
80
80
80
80
FC
80
80
80
80
80
FC
ENDCHAR
STARTCHAR 00C9
ENCODING 201
SWIDTH 540 0
DWIDTH 9 0
BBX 6 16 2 0
BITMAP
08
18
30
00
FC
80
80
80
80
FC
80
80
80
80
80
FC
ENDCHAR
STARTCHAR 00CA
ENCODING 202
SWIDTH 540 0
DWIDTH 9 0
BBX 6 16 2 0
BITMAP
30
38
CC
00
FC
80
80
80
80
FC
80
80
80
80
80
FC
ENDCHAR
STARTCHAR 00CB
ENCODING 203
SWIDTH 540 0
DWIDTH 9 0
BBX 6 15 2 0
BITMAP
4C
00
00
FC
80
80
80
80
FC
80
80
80
80
80
FC
ENDCHAR
STARTCHAR 00CC
ENCODING 204
SWIDTH 360 0
DWIDTH 6 0
BBX 4 16 1 0
BITMAP
80
C0
60
00
F0
60
60
60
60
60
60
60
60
60
60
F0
ENDCHAR
STARTCHAR 00CD
ENCODING 205
SWIDTH 360 0
DWIDTH 6 0
BBX 4 16 1 0
BITMAP
30
20
40
00
F0
60
60
60
60
60
60
60
60
60
60
F0
ENDCHAR
STARTCHAR 00CE
ENCODING 206
SWIDTH 360 0
DWIDTH 6 0
BBX 6 16 0 0
BITMAP
30
70
CC
00
78
30
30
30
30
30
30
30
30
30
30
78
ENDCHAR
STARTCHAR 00CF
ENCODING 207
SWIDTH 360 0
DWIDTH 6 0
BBX 4 15 1 0
BITMAP
90
00
00
F0
60
60
60
60
60
60
60
60
60
60
F0
ENDCHAR
STARTCHAR 00D0
ENCODING 208
SWIDTH 720 0
DWIDTH 12 0
BBX 10 12 1 0
BITMAP
7E00
4380
40C0
40C0
4040
4040
F840
4040
40C0
4080
4380
7E00
ENDCHAR
STARTCHAR 00D1
ENCODING 209
SWIDTH 780 0
DWIDTH 13 0
BBX 9 15 2 0
BITMAP
3900
6E00
0000
C080
C080
E080
B080
9080
9880
8C80
8480
8680
8380
8180
8180
ENDCHAR
STARTCHAR 00D2
ENCODING 210
SWIDTH 780 0
DWIDTH 13 0
BBX 11 16 1 0
BITMAP
1800
0C00
0600
0000
1F00
31C0
6040
C060
C020
C020
C020
C060
C060
6040
31C0
1F00
ENDCHAR
STARTCHAR 00D3
ENCODING 211
SWIDTH 780 0
DWIDTH 13 0
BBX 11 16 1 0
BITMAP
0300
0600
0C00
0000
1F00
31C0
6040
C060
C020
C020
C020
C060
C060
6040
31C0
1F00
ENDCHAR
STARTCHAR 00D4
ENCODING 212
SWIDTH 780 0
DWIDTH 13 0
BBX 11 16 1 0
BITMAP
0400
0E00
1980
0000
1F00
31C0
6040
C060
C020
C020
C020
C060
C060
6040
31C0
1F00
ENDCHAR
STARTCHAR 00D5
ENCODING 213
SWIDTH 780 0
DWIDTH 13 0
BBX 11 15 1 0
BITMAP
1C80
1700
0000
1F00
31C0
6040
C060
C020
C020
C020
C060
C060
6040
31C0
1F00
ENDCHAR
STARTCHAR 00D6
ENCODING 214
SWIDTH 780 0
DWIDTH 13 0
BBX 11 15 1 0
BITMAP
1B00
0000
0000
1F00
31C0
6040
C060
C020
C020
C020
C060
C060
6040
31C0
1F00
ENDCHAR
STARTCHAR 00D7
ENCODING 215
SWIDTH 600 0
DWIDTH 10 0
BBX 8 8 1 2
BITMAP
82
C7
6C
38
38
6C
C7
82
ENDCHAR
STARTCHAR 00D8
ENCODING 216
SWIDTH 780 0
DWIDTH 13 0
BBX 11 12 1 0
BITMAP
1F60
31C0
61C0
C160
C260
C620
CC20
C860
D860
7040
71C0
5F00
ENDCHAR
STARTCHAR 00D9
ENCODING 217
SWIDTH 720 0
DWIDTH 12 0
BBX 9 16 2 0
BITMAP
3000
1000
0800
0000
8180
8180
8180
8180
8180
8180
8180
8180
8180
8180
E300
3E00
ENDCHAR
STARTCHAR 00DA
ENCODING 218
SWIDTH 720 0
DWIDTH 12 0
BBX 9 16 2 0
BITMAP
0400
0C00
1800
0000
8180
8180
8180
8180
8180
8180
8180
8180
8180
8180
E300
3E00
ENDCHAR
STARTCHAR 00DB
ENCODING 219
SWIDTH 720 0
DWIDTH 12 0
BBX 9 16 2 0
BITMAP
1800
1C00
6600
0000
8180
8180
8180
8180
8180
8180
8180
8180
8180
8180
E300
3E00
ENDCHAR
STARTCHAR 00DC
ENCODING 220
SWIDTH 720 0
DWIDTH 12 0
BBX 9 15 2 0
BITMAP
2600
0000
0000
8180
8180
8180
8180
8180
8180
8180
8180
8180
8180
E300
3E00
ENDCHAR
STARTCHAR 00DD
ENCODING 221
SWIDTH 600 0
DWIDTH 10 0
BBX 10 16 0 0
BITMAP
0600
0400
0800
0000
C0C0
4180
6100
3300
3200
1E00
0C00
0C00
0C00
0C00
0C00
0C00
ENDCHAR
STARTCHAR 00DE
ENCODING 222
SWIDTH 600 0
DWIDTH 10 0
BBX 7 12 2 0
BITMAP
80
80
FC
86
82
82
82
86
FC
80
80
80
ENDCHAR
STARTCHAR 00DF
ENCODING 223
SWIDTH 660 0
DWIDTH 11 0
BBX 9 12 1 0
BITMAP
3E00
6300
C300
C200
CC00
CC00
CC00
C300
C180
C180
D180
DF00
ENDCHAR
STARTCHAR 00E0
ENCODING 224
SWIDTH 600 0
DWIDTH 10 0
BBX 7 13 1 0
BITMAP
20
30
18
00
7C
46
02
02
7E
C2
82
C6
7A
ENDCHAR
STARTCHAR 00E1
ENCODING 225
SWIDTH 600 0
DWIDTH 10 0
BBX 7 13 1 0
BITMAP
0C
08
10
00
7C
46
02
02
7E
C2
82
C6
7A
ENDCHAR
STARTCHAR 00E2
ENCODING 226
SWIDTH 600 0
DWIDTH 10 0
BBX 7 13 1 0
BITMAP
18
38
66
00
7C
46
02
02
7E
C2
82
C6
7A
ENDCHAR
STARTCHAR 00E3
ENCODING 227
SWIDTH 600 0
DWIDTH 10 0
BBX 7 12 1 0
BITMAP
72
5C
00
7C
46
02
02
7E
C2
82
C6
7A
ENDCHAR
STARTCHAR 00E4
ENCODING 228
SWIDTH 600 0
DWIDTH 10 0
BBX 7 12 1 0
BITMAP
64
00
00
7C
46
02
02
7E
C2
82
C6
7A
ENDCHAR
STARTCHAR 00E5
ENCODING 229
SWIDTH 600 0
DWIDTH 10 0
BBX 7 13 1 0
BITMAP
38
24
38
00
7C
46
02
02
7E
C2
82
C6
7A
ENDCHAR
STARTCHAR 00E6
ENCODING 230
SWIDTH 900 0
DWIDTH 15 0
BBX 13 9 1 0
BITMAP
7DE0
4730
0618
0618
7FF8
C600
8600
CF08
79F0
ENDCHAR
STARTCHAR 00E7
ENCODING 231
SWIDTH 480 0
DWIDTH 8 0
BBX 7 13 1 -4
BITMAP
3E
64
C0
C0
80
C0
C0
62
3C
10
18
0C
38
ENDCHAR
STARTCHAR 00E8
ENCODING 232
SWIDTH 600 0
DWIDTH 10 0
BBX 8 13 1 0
BITMAP
20
30
18
00
3C
66
C2
C3
FF
C0
C0
62
3E
ENDCHAR
STARTCHAR 00E9
ENCODING 233
SWIDTH 600 0
DWIDTH 10 0
BBX 8 13 1 0
BITMAP
0C
08
10
00
3C
66
C2
C3
FF
C0
C0
62
3E
ENDCHAR
STARTCHAR 00EA
ENCODING 234
SWIDTH 600 0
DWIDTH 10 0
BBX 8 13 1 0
BITMAP
18
38
66
00
3C
66
C2
C3
FF
C0
C0
62
3E
ENDCHAR
STARTCHAR 00EB
ENCODING 235
SWIDTH 600 0
DWIDTH 10 0
BBX 8 12 1 0
BITMAP
64
00
00
3C
66
C2
C3
FF
C0
C0
62
3E
ENDCHAR
STARTCHAR 00EC
ENCODING 236
SWIDTH 240 0
DWIDTH 4 0
BBX 3 13 0 0
BITMAP
C0
40
20
00
60
60
60
60
60
60
60
60
60
ENDCHAR
STARTCHAR 00ED
ENCODING 237
SWIDTH 240 0
DWIDTH 4 0
BBX 3 13 1 0
BITMAP
20
60
C0
00
C0
C0
C0
C0
C0
C0
C0
C0
C0
ENDCHAR
STARTCHAR 00EE
ENCODING 238
SWIDTH 240 0
DWIDTH 4 0
BBX 6 13 -1 0
BITMAP
30
38
CC
00
30
30
30
30
30
30
30
30
30
ENDCHAR
STARTCHAR 00EF
ENCODING 239
SWIDTH 240 0
DWIDTH 4 0
BBX 5 12 0 0
BITMAP
98
00
00
60
60
60
60
60
60
60
60
60
ENDCHAR
STARTCHAR 00F0
ENCODING 240
SWIDTH 600 0
DWIDTH 10 0
BBX 8 13 1 0
BITMAP
22
1E
1C
26
03
3D
63
C1
81
81
C1
62
3C
ENDCHAR
STARTCHAR 00F1
ENCODING 241
SWIDTH 660 0
DWIDTH 11 0
BBX 8 12 1 0
BITMAP
32
4E
00
DE
E3
C1
C1
C1
C1
C1
C1
C1
ENDCHAR
STARTCHAR 00F2
ENCODING 242
SWIDTH 600 0
DWIDTH 10 0
BBX 8 13 1 0
BITMAP
30
10
08
00
3C
62
C3
C1
81
C1
C3
66
3C
ENDCHAR
STARTCHAR 00F3
ENCODING 243
SWIDTH 600 0
DWIDTH 10 0
BBX 8 13 1 0
BITMAP
04
0C
18
00
3C
62
C3
C1
81
C1
C3
66
3C
ENDCHAR
STARTCHAR 00F4
ENCODING 244
SWIDTH 600 0
DWIDTH 10 0
BBX 8 13 1 0
BITMAP
18
1C
66
00
3C
62
C3
C1
81
C1
C3
66
3C
ENDCHAR
STARTCHAR 00F5
ENCODING 245
SWIDTH 600 0
DWIDTH 10 0
BBX 8 12 1 0
BITMAP
32
4E
00
3C
62
C3
C1
81
C1
C3
66
3C
ENDCHAR
STARTCHAR 00F6
ENCODING 246
SWIDTH 600 0
DWIDTH 10 0
BBX 8 12 1 0
BITMAP
26
00
00
3C
62
C3
C1
81
C1
C3
66
3C
ENDCHAR
STARTCHAR 00F7
ENCODING 247
SWIDTH 600 0
DWIDTH 10 0
BBX 8 8 1 2
BITMAP
18
18
00
00
FF
00
18
18
ENDCHAR
STARTCHAR 00F8
ENCODING 248
SWIDTH 600 0
DWIDTH 10 0
BBX 8 9 1 0
BITMAP
3F
66
C7
CD
99
D1
E3
63
FC
ENDCHAR
STARTCHAR 00F9
ENCODING 249
SWIDTH 660 0
DWIDTH 11 0
BBX 8 13 1 0
BITMAP
30
10
08
00
C1
C1
C1
C1
C1
C1
C3
67
3D
ENDCHAR
STARTCHAR 00FA
ENCODING 250
SWIDTH 660 0
DWIDTH 11 0
BBX 8 13 1 0
BITMAP
04
0C
18
00
C1
C1
C1
C1
C1
C1
C3
67
3D
ENDCHAR
STARTCHAR 00FB
ENCODING 251
SWIDTH 660 0
DWIDTH 11 0
BBX 8 13 1 0
BITMAP
18
1C
66
00
C1
C1
C1
C1
C1
C1
C3
67
3D
ENDCHAR
STARTCHAR 00FC
ENCODING 252
SWIDTH 660 0
DWIDTH 11 0
BBX 8 12 1 0
BITMAP
26
00
00
C1
C1
C1
C1
C1
C1
C3
67
3D
ENDCHAR
STARTCHAR 00FD
ENCODING 253
SWIDTH 540 0
DWIDTH 9 0
BBX 9 17 0 -4
BITMAP
0600
0C00
1800
0000
C180
4100
6300
6200
2600
3600
1400
1C00
1800
1800
1800
3000
E000
ENDCHAR
STARTCHAR 00FE
ENCODING 254
SWIDTH 600 0
DWIDTH 10 0
BBX 9 16 1 -4
BITMAP
C000
C000
C000
DE00
E300
C100
C100
C180
C100
C100
E300
DE00
C000
C000
C000
C000
ENDCHAR
STARTCHAR 00FF
ENCODING 255
SWIDTH 540 0
DWIDTH 9 0
BBX 9 16 0 -4
BITMAP
3600
0000
0000
C180
4100
6300
6200
2600
3600
1400
1C00
1800
1800
1800
3000
E000
ENDCHAR
STARTCHAR 0100
ENCODING 256
SWIDTH 660 0
DWIDTH 11 0
BBX 11 14 0 0
BITMAP
1F00
0000
0400
0E00
0A00
1B00
1300
1100
3180
3F80
6080
60C0
4040
C060
ENDCHAR
STARTCHAR 0101
ENCODING 257
SWIDTH 600 0
DWIDTH 10 0
BBX 7 11 1 0
BITMAP
7C
00
7C
46
02
02
7E
C2
82
C6
7A
ENDCHAR
STARTCHAR 0102
ENCODING 258
SWIDTH 660 0
DWIDTH 11 0
BBX 11 15 0 0
BITMAP
1100
1E00
0000
0400
0E00
0A00
1B00
1300
1100
3180
3F80
6080
60C0
4040
C060
ENDCHAR
STARTCHAR 0103
ENCODING 259
SWIDTH 600 0
DWIDTH 10 0
BBX 7 12 1 0
BITMAP
44
3C
00
7C
46
02
02
7E
C2
82
C6
7A
ENDCHAR
STARTCHAR 0104
ENCODING 260
SWIDTH 660 0
DWIDTH 11 0
BBX 11 16 0 -4
BITMAP
0400
0E00
0A00
1B00
1300
1100
3180
3F80
6080
60C0
4040
C060
0040
0080
0080
00E0
ENDCHAR
STARTCHAR 0105
ENCODING 261
SWIDTH 600 0
DWIDTH 10 0
BBX 8 13 1 -4
BITMAP
7C
46
02
02
7E
C2
82
C6
7A
02
04
04
07
ENDCHAR
STARTCHAR 0106
ENCODING 262
SWIDTH 660 0
DWIDTH 11 0
BBX 9 16 1 0
BITMAP
0300
0600
0C00
0000
1F80
3080
6000
C000
C000
C000
C000
C000
C000
6000
3080
1F80
ENDCHAR
STARTCHAR 0107
ENCODING 263
SWIDTH 480 0
DWIDTH 8 0
BBX 7 13 1 0
BITMAP
0C
08
10
00
3E
64
C0
C0
80
C0
C0
62
3C
ENDCHAR
STARTCHAR 010A
ENCODING 266
SWIDTH 660 0
DWIDTH 11 0
BBX 9 15 1 0
BITMAP
0400
0400
0000
1F80
3080
6000
C000
C000
C000
C000
C000
C000
6000
3080
1F80
ENDCHAR
STARTCHAR 010B
ENCODING 267
SWIDTH 480 0
DWIDTH 8 0
BBX 7 12 1 0
BITMAP
18
18
00
3E
64
C0
C0
80
C0
C0
62
3C
ENDCHAR
STARTCHAR 010C
ENCODING 268
SWIDTH 660 0
DWIDTH 11 0
BBX 9 16 1 0
BITMAP
1100
1B00
0E00
0000
1F80
3080
6000
C000
C000
C000
C000
C000
C000
6000
3080
1F80
ENDCHAR
STARTCHAR 010D
ENCODING 269
SWIDTH 480 0
DWIDTH 8 0
BBX 7 13 1 0
BITMAP
42
2C
18
00
3E
64
C0
C0
80
C0
C0
62
3C
ENDCHAR
STARTCHAR 010E
ENCODING 270
SWIDTH 720 0
DWIDTH 12 0
BBX 9 16 2 0
BITMAP
4200
3400
1800
0000
FC00
8700
8180
8180
8080
8080
8080
8080
8180
8100
8700
FC00
ENDCHAR
STARTCHAR 010F
ENCODING 271
SWIDTH 600 0
DWIDTH 10 0
BBX 11 12 1 0
BITMAP
0160
0140
0140
3D00
6700
C300
C300
8100
C300
C300
6700
3D00
ENDCHAR
STARTCHAR 0110
ENCODING 272
SWIDTH 720 0
DWIDTH 12 0
BBX 10 12 1 0
BITMAP
7E00
4380
40C0
40C0
4040
4040
F840
4040
40C0
4080
4380
7E00
ENDCHAR
STARTCHAR 0111
ENCODING 273
SWIDTH 600 0
DWIDTH 10 0
BBX 9 12 1 0
BITMAP
0100
1F80
0100
3D00
6700
C300
C300
C100
C300
C300
6700
3D00
ENDCHAR
STARTCHAR 0112
ENCODING 274
SWIDTH 540 0
DWIDTH 9 0
BBX 6 14 2 0
BITMAP
7C
00
FC
80
80
80
80
FC
80
80
80
80
80
FC
ENDCHAR
STARTCHAR 0113
ENCODING 275
SWIDTH 600 0
DWIDTH 10 0
BBX 8 11 1 0
BITMAP
7C
00
3C
66
C2
C3
FF
C0
C0
62
3E
ENDCHAR
STARTCHAR 0116
ENCODING 278
SWIDTH 540 0
DWIDTH 9 0
BBX 6 15 2 0
BITMAP
30
30
00
FC
80
80
80
80
FC
80
80
80
80
80
FC
ENDCHAR
STARTCHAR 0117
ENCODING 279
SWIDTH 600 0
DWIDTH 10 0
BBX 8 12 1 0
BITMAP
18
18
00
3C
66
C2
C3
FF
C0
C0
62
3E
ENDCHAR
STARTCHAR 0118
ENCODING 280
SWIDTH 540 0
DWIDTH 9 0
BBX 6 16 2 -4
BITMAP
FC
80
80
80
80
FC
80
80
80
80
80
FC
04
08
08
0C
ENDCHAR
STARTCHAR 0119
ENCODING 281
SWIDTH 600 0
DWIDTH 10 0
BBX 8 13 1 -4
BITMAP
3C
66
C2
C3
FF
C0
C0
62
3E
04
04
0C
06
ENDCHAR
STARTCHAR 011A
ENCODING 282
SWIDTH 540 0
DWIDTH 9 0
BBX 6 16 2 0
BITMAP
84
68
30
00
FC
80
80
80
80
FC
80
80
80
80
80
FC
ENDCHAR
STARTCHAR 011B
ENCODING 283
SWIDTH 600 0
DWIDTH 10 0
BBX 8 13 1 0
BITMAP
42
2C
18
00
3C
66
C2
C3
FF
C0
C0
62
3E
ENDCHAR
STARTCHAR 011E
ENCODING 286
SWIDTH 720 0
DWIDTH 12 0
BBX 10 15 1 0
BITMAP
1180
0F00
0000
1FC0
30C0
6000
C000
C000
C000
C3C0
C040
C040
6040
3040
1FC0
ENDCHAR
STARTCHAR 011F
ENCODING 287
SWIDTH 600 0
DWIDTH 10 0
BBX 8 16 1 -4
BITMAP
42
3C
00
3D
67
C3
C3
81
C1
C3
67
3D
01
03
46
7C
ENDCHAR
STARTCHAR 0120
ENCODING 288
SWIDTH 720 0
DWIDTH 12 0
BBX 10 15 1 0
BITMAP
0600
0600
0000
1FC0
30C0
6000
C000
C000
C000
C3C0
C040
C040
6040
3040
1FC0
ENDCHAR
STARTCHAR 0121
ENCODING 289
SWIDTH 600 0
DWIDTH 10 0
BBX 8 16 1 -4
BITMAP
18
18
00
3D
67
C3
C3
81
C1
C3
67
3D
01
03
46
7C
ENDCHAR
STARTCHAR 0122
ENCODING 290
SWIDTH 720 0
DWIDTH 12 0
BBX 10 16 1 -4
BITMAP
1FC0
30C0
6000
C000
C000
C000
C3C0
C040
C040
6040
3040
1FC0
0000
0600
0400
0400
ENDCHAR
STARTCHAR 0123
ENCODING 291
SWIDTH 600 0
DWIDTH 10 0
BBX 8 16 1 -4
BITMAP
08
18
18
3D
67
C3
C3
81
C1
C3
67
3D
01
03
46
7C
ENDCHAR
STARTCHAR 0126
ENCODING 294
SWIDTH 780 0
DWIDTH 13 0
BBX 13 12 0 0
BITMAP
2060
2060
FFF8
2060
2060
3FE0
2060
2060
2060
2060
2060
2060
ENDCHAR
STARTCHAR 0127
ENCODING 295
SWIDTH 660 0
DWIDTH 11 0
BBX 9 12 0 0
BITMAP
6000
FE00
6000
6F00
7180
6080
6080
6080
6080
6080
6080
6080
ENDCHAR
STARTCHAR 012A
ENCODING 298
SWIDTH 360 0
DWIDTH 6 0
BBX 5 14 0 0
BITMAP
F8
00
78
30
30
30
30
30
30
30
30
30
30
78
ENDCHAR
STARTCHAR 012B
ENCODING 299
SWIDTH 240 0
DWIDTH 4 0
BBX 5 11 0 0
BITMAP
F8
00
60
60
60
60
60
60
60
60
60
ENDCHAR
STARTCHAR 012E
ENCODING 302
SWIDTH 360 0
DWIDTH 6 0
BBX 4 16 1 -4
BITMAP
F0
60
60
60
60
60
60
60
60
60
60
F0
20
20
40
70
ENDCHAR
STARTCHAR 012F
ENCODING 303
SWIDTH 240 0
DWIDTH 4 0
BBX 3 16 0 -4
BITMAP
60
60
00
60
60
60
60
60
60
60
60
60
20
40
C0
60
ENDCHAR
STARTCHAR 0130
ENCODING 304
SWIDTH 360 0
DWIDTH 6 0
BBX 4 15 1 0
BITMAP
60
60
00
F0
60
60
60
60
60
60
60
60
60
60
F0
ENDCHAR
STARTCHAR 0131
ENCODING 305
SWIDTH 240 0
DWIDTH 4 0
BBX 2 9 1 0
BITMAP
C0
C0
C0
C0
C0
C0
C0
C0
C0
ENDCHAR
STARTCHAR 0132
ENCODING 306
SWIDTH 600 0
DWIDTH 10 0
BBX 8 15 1 -3
BITMAP
F3
63
63
63
63
63
63
63
63
63
63
F3
03
03
1E
ENDCHAR
STARTCHAR 0133
ENCODING 307
SWIDTH 540 0
DWIDTH 9 0
BBX 6 16 1 -4
BITMAP
C4
C4
00
C4
C4
C4
C4
C4
C4
C4
C4
C4
04
04
0C
3C
ENDCHAR
STARTCHAR 0136
ENCODING 310
SWIDTH 660 0
DWIDTH 11 0
BBX 9 16 2 -4
BITMAP
8300
8600
8C00
9800
B000
B000
D000
9800
8C00
8600
8200
8380
0000
1800
1000
1000
ENDCHAR
STARTCHAR 0137
ENCODING 311
SWIDTH 540 0
DWIDTH 9 0
BBX 8 16 1 -4
BITMAP
C0
C0
C0
C7
CC
C8
D0
F0
D8
CC
C6
C3
00
18
10
30
ENDCHAR
STARTCHAR 0139
ENCODING 313
SWIDTH 540 0
DWIDTH 9 0
BBX 7 16 1 0
BITMAP
30
60
C0
00
40
40
40
40
40
40
40
40
40
40
40
7E
ENDCHAR
STARTCHAR 013A
ENCODING 314
SWIDTH 240 0
DWIDTH 4 0
BBX 3 17 1 0
BITMAP
20
60
C0
00
00
C0
C0
C0
C0
C0
C0
C0
C0
C0
C0
C0
C0
ENDCHAR
STARTCHAR 013B
ENCODING 315
SWIDTH 540 0
DWIDTH 9 0
BBX 6 16 2 -4
BITMAP
80
80
80
80
80
80
80
80
80
80
80
FC
00
10
30
20
ENDCHAR
STARTCHAR 013C
ENCODING 316
SWIDTH 240 0
DWIDTH 4 0
BBX 2 16 1 -4
BITMAP
C0
C0
C0
C0
C0
C0
C0
C0
C0
C0
C0
C0
00
40
40
80
ENDCHAR
STARTCHAR 013D
ENCODING 317
SWIDTH 540 0
DWIDTH 9 0
BBX 6 12 2 0
BITMAP
80
84
84
88
80
80
80
80
80
80
80
FC
ENDCHAR
STARTCHAR 013E
ENCODING 318
SWIDTH 240 0
DWIDTH 4 0
BBX 5 12 1 0
BITMAP
D8
D0
D0
C0
C0
C0
C0
C0
C0
C0
C0
C0
ENDCHAR
STARTCHAR 0141
ENCODING 321
SWIDTH 540 0
DWIDTH 9 0
BBX 8 12 0 0
BITMAP
20
20
20
20
24
3C
30
E0
20
20
20
3F
ENDCHAR
STARTCHAR 0142
ENCODING 322
SWIDTH 240 0
DWIDTH 4 0
BBX 5 12 0 0
BITMAP
60
60
60
60
60
78
60
E0
60
60
60
60
ENDCHAR
STARTCHAR 0143
ENCODING 323
SWIDTH 780 0
DWIDTH 13 0
BBX 9 16 2 0
BITMAP
0600
0C00
1800
0000
C080
C080
E080
B080
9080
9880
8C80
8480
8680
8380
8180
8180
ENDCHAR
STARTCHAR 0144
ENCODING 324
SWIDTH 660 0
DWIDTH 11 0
BBX 8 13 1 0
BITMAP
04
0C
18
00
DE
E3
C1
C1
C1
C1
C1
C1
C1
ENDCHAR
STARTCHAR 0145
ENCODING 325
SWIDTH 780 0
DWIDTH 13 0
BBX 9 16 2 -4
BITMAP
C080
C080
E080
B080
9080
9880
8C80
8480
8680
8380
8180
8180
0000
0C00
0800
1800
ENDCHAR
STARTCHAR 0146
ENCODING 326
SWIDTH 660 0
DWIDTH 11 0
BBX 8 13 1 -4
BITMAP
DE
E3
C1
C1
C1
C1
C1
C1
C1
00
08
08
10
ENDCHAR
STARTCHAR 0147
ENCODING 327
SWIDTH 780 0
DWIDTH 13 0
BBX 9 16 2 0
BITMAP
2200
3600
1C00
0000
C080
C080
E080
B080
9080
9880
8C80
8480
8680
8380
8180
8180
ENDCHAR
STARTCHAR 0148
ENCODING 328
SWIDTH 660 0
DWIDTH 11 0
BBX 8 13 1 0
BITMAP
42
34
18
00
DE
E3
C1
C1
C1
C1
C1
C1
C1
ENDCHAR
STARTCHAR 014A
ENCODING 330
SWIDTH 780 0
DWIDTH 13 0
BBX 9 15 2 -3
BITMAP
C080
C080
E080
B080
9080
9880
8C80
8480
8680
8380
8180
8080
0080
0180
0700
ENDCHAR
STARTCHAR 014B
ENCODING 331
SWIDTH 660 0
DWIDTH 11 0
BBX 8 13 1 -4
BITMAP
DE
E3
C1
C1
C1
C1
C1
C1
C1
01
01
03
0E
ENDCHAR
STARTCHAR 014C
ENCODING 332
SWIDTH 780 0
DWIDTH 13 0
BBX 11 14 1 0
BITMAP
1F00
0000
1F00
31C0
6040
C060
C020
C020
C020
C060
C060
6040
31C0
1F00
ENDCHAR
STARTCHAR 014D
ENCODING 333
SWIDTH 600 0
DWIDTH 10 0
BBX 8 11 1 0
BITMAP
3E
00
3C
62
C3
C1
81
C1
C3
66
3C
ENDCHAR
STARTCHAR 0150
ENCODING 336
SWIDTH 780 0
DWIDTH 13 0
BBX 11 16 1 0
BITMAP
0D80
1B00
1200
0000
1F00
31C0
6040
C060
C020
C020
C020
C060
C060
6040
31C0
1F00
ENDCHAR
STARTCHAR 0151
ENCODING 337
SWIDTH 600 0
DWIDTH 10 0
BBX 8 13 1 0
BITMAP
36
24
48
00
3C
62
C3
C1
81
C1
C3
66
3C
ENDCHAR
STARTCHAR 0152
ENCODING 338
SWIDTH 960 0
DWIDTH 16 0
BBX 14 12 1 0
BITMAP
1FFC
3180
6180
C180
C180
C1F8
C180
C180
C180
6180
3180
1FFC
ENDCHAR
STARTCHAR 0153
ENCODING 339
SWIDTH 960 0
DWIDTH 16 0
BBX 14 9 1 0
BITMAP
3C70
6688
C38C
C104
81FC
C100
C300
6684
3C7C
ENDCHAR
STARTCHAR 0154
ENCODING 340
SWIDTH 660 0
DWIDTH 11 0
BBX 8 16 2 0
BITMAP
08
18
30
00
FC
86
82
82
82
86
FC
88
8C
86
82
83
ENDCHAR
STARTCHAR 0155
ENCODING 341
SWIDTH 420 0
DWIDTH 7 0
BBX 6 13 1 0
BITMAP
18
18
20
00
DC
E0
C0
C0
C0
C0
C0
C0
C0
ENDCHAR
STARTCHAR 0156
ENCODING 342
SWIDTH 660 0
DWIDTH 11 0
BBX 8 16 2 -4
BITMAP
FC
86
82
82
82
86
FC
88
8C
86
82
83
00
18
10
30
ENDCHAR
STARTCHAR 0157
ENCODING 343
SWIDTH 420 0
DWIDTH 7 0
BBX 6 13 1 -4
BITMAP
DC
E0
C0
C0
C0
C0
C0
C0
C0
00
40
C0
80
ENDCHAR
STARTCHAR 0158
ENCODING 344
SWIDTH 660 0
DWIDTH 11 0
BBX 8 16 2 0
BITMAP
84
68
30
00
FC
86
82
82
82
86
FC
88
8C
86
82
83
ENDCHAR
STARTCHAR 0159
ENCODING 345
SWIDTH 420 0
DWIDTH 7 0
BBX 6 13 1 0
BITMAP
84
68
30
00
DC
E0
C0
C0
C0
C0
C0
C0
C0
ENDCHAR
STARTCHAR 015A
ENCODING 346
SWIDTH 540 0
DWIDTH 9 0
BBX 8 16 1 0
BITMAP
0C
08
10
00
3E
C2
C0
C0
C0
78
1E
06
03
02
86
FC
ENDCHAR
STARTCHAR 015B
ENCODING 347
SWIDTH 480 0
DWIDTH 8 0
BBX 6 13 1 0
BITMAP
18
18
20
00
7C
C4
80
E0
38
0C
04
8C
F8
ENDCHAR
STARTCHAR 015E
ENCODING 350
SWIDTH 540 0
DWIDTH 9 0
BBX 8 16 1 -4
BITMAP
3E
C2
C0
C0
C0
78
1E
06
03
02
86
FC
10
38
08
30
ENDCHAR
STARTCHAR 015F
ENCODING 351
SWIDTH 480 0
DWIDTH 8 0
BBX 6 13 1 -4
BITMAP
7C
C4
80
E0
38
0C
04
8C
F8
20
30
08
70
ENDCHAR
STARTCHAR 0160
ENCODING 352
SWIDTH 540 0
DWIDTH 9 0
BBX 8 16 1 0
BITMAP
42
2C
18
00
3E
C2
C0
C0
C0
78
1E
06
03
02
86
FC
ENDCHAR
STARTCHAR 0161
ENCODING 353
SWIDTH 480 0
DWIDTH 8 0
BBX 6 13 1 0
BITMAP
84
68
30
00
7C
C4
80
E0
38
0C
04
8C
F8
ENDCHAR
STARTCHAR 0164
ENCODING 356
SWIDTH 540 0
DWIDTH 9 0
BBX 9 16 0 0
BITMAP
2100
1600
0C00
0000
FF80
0800
0800
0800
0800
0800
0800
0800
0800
0800
0800
0800
ENDCHAR
STARTCHAR 0165
ENCODING 357
SWIDTH 360 0
DWIDTH 6 0
BBX 8 12 0 0
BITMAP
03
22
22
FC
20
20
20
20
20
20
30
3C
ENDCHAR
STARTCHAR 016A
ENCODING 362
SWIDTH 720 0
DWIDTH 12 0
BBX 9 14 2 0
BITMAP
3E00
0000
8180
8180
8180
8180
8180
8180
8180
8180
8180
8180
E300
3E00
ENDCHAR
STARTCHAR 016B
ENCODING 363
SWIDTH 660 0
DWIDTH 11 0
BBX 8 11 1 0
BITMAP
3E
00
C1
C1
C1
C1
C1
C1
C3
67
3D
ENDCHAR
STARTCHAR 016C
ENCODING 364
SWIDTH 720 0
DWIDTH 12 0
BBX 9 15 2 0
BITMAP
2200
3C00
0000
8180
8180
8180
8180
8180
8180
8180
8180
8180
8180
E300
3E00
ENDCHAR
STARTCHAR 016D
ENCODING 365
SWIDTH 660 0
DWIDTH 11 0
BBX 8 12 1 0
BITMAP
22
3C
00
C1
C1
C1
C1
C1
C1
C3
67
3D
ENDCHAR
STARTCHAR 016E
ENCODING 366
SWIDTH 720 0
DWIDTH 12 0
BBX 9 16 2 0
BITMAP
1C00
2400
1C00
0000
8180
8180
8180
8180
8180
8180
8180
8180
8180
8180
E300
3E00
ENDCHAR
STARTCHAR 016F
ENCODING 367
SWIDTH 660 0
DWIDTH 11 0
BBX 8 13 1 0
BITMAP
1C
24
1C
00
C1
C1
C1
C1
C1
C1
C3
67
3D
ENDCHAR
STARTCHAR 0170
ENCODING 368
SWIDTH 720 0
DWIDTH 12 0
BBX 9 16 2 0
BITMAP
3600
2400
6C00
0000
8180
8180
8180
8180
8180
8180
8180
8180
8180
8180
E300
3E00
ENDCHAR
STARTCHAR 0171
ENCODING 369
SWIDTH 660 0
DWIDTH 11 0
BBX 8 13 1 0
BITMAP
16
24
6C
00
C1
C1
C1
C1
C1
C1
C3
67
3D
ENDCHAR
STARTCHAR 0172
ENCODING 370
SWIDTH 720 0
DWIDTH 12 0
BBX 9 16 2 -4
BITMAP
8180
8180
8180
8180
8180
8180
8180
8180
8180
8180
E300
3E00
0400
0400
0400
0700
ENDCHAR
STARTCHAR 0173
ENCODING 371
SWIDTH 660 0
DWIDTH 11 0
BBX 8 13 1 -4
BITMAP
C1
C1
C1
C1
C1
C1
C3
67
3D
03
02
06
03
ENDCHAR
STARTCHAR 0174
ENCODING 372
SWIDTH 960 0
DWIDTH 16 0
BBX 16 16 0 0
BITMAP
0180
0380
0660
0000
C183
4182
4386
62C6
6244
2644
266C
346C
3428
1C28
1838
1810
ENDCHAR
STARTCHAR 0175
ENCODING 373
SWIDTH 780 0
DWIDTH 13 0
BBX 13 13 0 0
BITMAP
0200
0700
0CC0
0000
C308
4718
4510
6590
6CB0
2CB0
28A0
38E0
1860
ENDCHAR
STARTCHAR 0176
ENCODING 374
SWIDTH 600 0
DWIDTH 10 0
BBX 10 16 0 0
BITMAP
0C00
1C00
3300
0000
C0C0
4180
6100
3300
3200
1E00
0C00
0C00
0C00
0C00
0C00
0C00
ENDCHAR
STARTCHAR 0177
ENCODING 375
SWIDTH 540 0
DWIDTH 9 0
BBX 9 17 0 -4
BITMAP
0800
1C00
6600
0000
C180
4100
6300
6200
2600
3600
1400
1C00
1800
1800
1800
3000
E000
ENDCHAR
STARTCHAR 0178
ENCODING 376
SWIDTH 600 0
DWIDTH 10 0
BBX 10 15 0 0
BITMAP
3200
0000
0000
C0C0
4180
6100
3300
3200
1E00
0C00
0C00
0C00
0C00
0C00
0C00
ENDCHAR
STARTCHAR 0179
ENCODING 377
SWIDTH 600 0
DWIDTH 10 0
BBX 8 16 1 0
BITMAP
0C
08
10
00
FF
03
06
04
0C
18
10
30
60
40
C0
FF
ENDCHAR
STARTCHAR 017A
ENCODING 378
SWIDTH 480 0
DWIDTH 8 0
BBX 6 13 1 0
BITMAP
18
10
20
00
FC
0C
08
18
30
60
40
C0
FC
ENDCHAR
STARTCHAR 017B
ENCODING 379
SWIDTH 600 0
DWIDTH 10 0
BBX 8 15 1 0
BITMAP
18
18
00
FF
03
06
04
0C
18
10
30
60
40
C0
FF
ENDCHAR
STARTCHAR 017C
ENCODING 380
SWIDTH 480 0
DWIDTH 8 0
BBX 6 12 1 0
BITMAP
30
30
00
FC
0C
08
18
30
60
40
C0
FC
ENDCHAR
STARTCHAR 017D
ENCODING 381
SWIDTH 600 0
DWIDTH 10 0
BBX 8 16 1 0
BITMAP
42
2C
18
00
FF
03
06
04
0C
18
10
30
60
40
C0
FF
ENDCHAR
STARTCHAR 017E
ENCODING 382
SWIDTH 480 0
DWIDTH 8 0
BBX 6 13 1 0
BITMAP
84
58
30
00
FC
0C
08
18
30
60
40
C0
FC
ENDCHAR
STARTCHAR 01CD
ENCODING 461
SWIDTH 660 0
DWIDTH 11 0
BBX 11 16 0 0
BITMAP
1100
1A00
0E00
0000
0400
0E00
0A00
1B00
1300
1100
3180
3F80
6080
60C0
4040
C060
ENDCHAR
STARTCHAR 01CE
ENCODING 462
SWIDTH 600 0
DWIDTH 10 0
BBX 7 13 1 0
BITMAP
42
2C
18
00
7C
46
02
02
7E
C2
82
C6
7A
ENDCHAR
STARTCHAR 0218
ENCODING 536
SWIDTH 540 0
DWIDTH 9 0
BBX 8 16 1 -4
BITMAP
3E
C2
C0
C0
C0
78
1E
06
03
02
86
FC
00
10
10
20
ENDCHAR
STARTCHAR 0219
ENCODING 537
SWIDTH 480 0
DWIDTH 8 0
BBX 6 13 1 -4
BITMAP
7C
C4
80
E0
38
0C
04
8C
F8
00
10
30
20
ENDCHAR
STARTCHAR 021A
ENCODING 538
SWIDTH 540 0
DWIDTH 9 0
BBX 9 16 0 -4
BITMAP
FF80
0800
0800
0800
0800
0800
0800
0800
0800
0800
0800
0800
0000
0C00
0800
0800
ENDCHAR
STARTCHAR 021B
ENCODING 539
SWIDTH 360 0
DWIDTH 6 0
BBX 6 15 0 -4
BITMAP
20
20
FC
20
20
20
20
20
20
30
3C
00
18
10
10
ENDCHAR
STARTCHAR 0237
ENCODING 567
SWIDTH 240 0
DWIDTH 4 0
BBX 4 13 -1 -4
BITMAP
30
30
30
30
30
30
30
30
30
30
30
30
E0
ENDCHAR
STARTCHAR 02C6
ENCODING 710
SWIDTH 420 0
DWIDTH 7 0
BBX 5 3 1 10
BITMAP
20
70
88
ENDCHAR
STARTCHAR 02C7
ENCODING 711
SWIDTH 420 0
DWIDTH 7 0
BBX 5 3 1 10
BITMAP
88
D8
70
ENDCHAR
STARTCHAR 02C9
ENCODING 713
SWIDTH 360 0
DWIDTH 6 0
BBX 5 1 1 10
BITMAP
F8
ENDCHAR
STARTCHAR 02D8
ENCODING 728
SWIDTH 420 0
DWIDTH 7 0
BBX 5 2 1 10
BITMAP
88
F0
ENDCHAR
STARTCHAR 02D9
ENCODING 729
SWIDTH 180 0
DWIDTH 3 0
BBX 1 2 1 10
BITMAP
80
80
ENDCHAR
STARTCHAR 02DA
ENCODING 730
SWIDTH 300 0
DWIDTH 5 0
BBX 3 3 1 10
BITMAP
E0
A0
E0
ENDCHAR
STARTCHAR 02DB
ENCODING 731
SWIDTH 240 0
DWIDTH 4 0
BBX 2 4 1 -4
BITMAP
40
80
80
C0
ENDCHAR
STARTCHAR 02DC
ENCODING 732
SWIDTH 480 0
DWIDTH 8 0
BBX 6 2 1 10
BITMAP
E4
B8
ENDCHAR
STARTCHAR 02DD
ENCODING 733
SWIDTH 420 0
DWIDTH 7 0
BBX 6 3 1 10
BITMAP
6C
D8
90
ENDCHAR
STARTCHAR 0300
ENCODING 768
SWIDTH 0 0
DWIDTH 0 0
BBX 3 3 -8 10
BITMAP
80
C0
60
ENDCHAR
STARTCHAR 0301
ENCODING 769
SWIDTH 0 0
DWIDTH 0 0
BBX 4 3 -6 10
BITMAP
30
60
C0
ENDCHAR
STARTCHAR 0302
ENCODING 770
SWIDTH 0 0
DWIDTH 0 0
BBX 6 3 -3 10
BITMAP
30
78
CC
ENDCHAR
STARTCHAR 0303
ENCODING 771
SWIDTH 0 0
DWIDTH 0 0
BBX 6 2 -8 10
BITMAP
E4
B8
ENDCHAR
STARTCHAR 0304
ENCODING 772
SWIDTH 0 0
DWIDTH 0 0
BBX 6 1 -3 10
BITMAP
FC
ENDCHAR
STARTCHAR 0306
ENCODING 774
SWIDTH 0 0
DWIDTH 0 0
BBX 6 2 -3 10
BITMAP
84
78
ENDCHAR
STARTCHAR 0307
ENCODING 775
SWIDTH 0 0
DWIDTH 0 0
BBX 2 2 -1 10
BITMAP
C0
C0
ENDCHAR
STARTCHAR 0308
ENCODING 776
SWIDTH 0 0
DWIDTH 0 0
BBX 4 1 -2 11
BITMAP
90
ENDCHAR
STARTCHAR 030A
ENCODING 778
SWIDTH 0 0
DWIDTH 0 0
BBX 4 3 -2 10
BITMAP
60
90
F0
ENDCHAR
STARTCHAR 030B
ENCODING 779
SWIDTH 0 0
DWIDTH 0 0
BBX 6 3 -2 10
BITMAP
6C
48
90
ENDCHAR
STARTCHAR 030C
ENCODING 780
SWIDTH 0 0
DWIDTH 0 0
BBX 6 3 -3 10
BITMAP
84
58
30
ENDCHAR
STARTCHAR 0312
ENCODING 786
SWIDTH 0 0
DWIDTH 0 0
BBX 2 4 -1 8
BITMAP
40
C0
C0
80
ENDCHAR
STARTCHAR 0323
ENCODING 803
SWIDTH 0 0
DWIDTH 0 0
BBX 2 2 -6 -3
BITMAP
C0
C0
ENDCHAR
STARTCHAR 0324
ENCODING 804
SWIDTH 0 0
DWIDTH 0 0
BBX 4 1 -2 11
BITMAP
90
ENDCHAR
STARTCHAR 0326
ENCODING 806
SWIDTH 0 0
DWIDTH 0 0
BBX 2 3 -1 -4
BITMAP
40
C0
80
ENDCHAR
STARTCHAR 0327
ENCODING 807
SWIDTH 0 0
DWIDTH 0 0
BBX 4 4 -2 -4
BITMAP
60
60
30
E0
ENDCHAR
STARTCHAR 0328
ENCODING 808
SWIDTH 0 0
DWIDTH 0 0
BBX 2 4 -1 -4
BITMAP
40
80
80
C0
ENDCHAR
STARTCHAR 0330
ENCODING 816
SWIDTH 0 0
DWIDTH 0 0
BBX 6 2 -3 -3
BITMAP
64
9C
ENDCHAR
STARTCHAR 0331
ENCODING 817
SWIDTH 0 0
DWIDTH 0 0
BBX 6 1 -3 -2
BITMAP
FC
ENDCHAR
STARTCHAR 13A0
ENCODING 5024
SWIDTH 840 0
DWIDTH 14 0
BBX 11 12 1 0
BITMAP
FF00
21C0
2040
2060
2020
2020
2020
2020
2060
2040
21C0
FF00
ENDCHAR
STARTCHAR 13A1
ENCODING 5025
SWIDTH 720 0
DWIDTH 12 0
BBX 11 12 1 0
BITMAP
FF00
2180
20C0
20C0
20C0
2180
3F00
2100
2180
2080
2080
F8E0
ENDCHAR
STARTCHAR 13A2
ENCODING 5026
SWIDTH 720 0
DWIDTH 12 0
BBX 10 12 1 0
BITMAP
FFC0
8C40
8C40
0C00
0C00
0C00
0C00
0C00
0C00
0C00
0C00
3E00
ENDCHAR
STARTCHAR 13A3
ENCODING 5027
SWIDTH 900 0
DWIDTH 15 0
BBX 13 12 1 0
BITMAP
0780
0300
0300
0380
06E0
3830
4418
8618
8218
8618
C430
78E0
ENDCHAR
STARTCHAR 13A4
ENCODING 5028
SWIDTH 1140 0
DWIDTH 19 0
BBX 17 12 1 0
BITMAP
1F0700
718900
40C880
C04880
C04080
C06180
C07100
C05E00
C04000
40C000
718000
1F0000
ENDCHAR
STARTCHAR 13A5
ENCODING 5029
SWIDTH 360 0
DWIDTH 6 0
BBX 4 12 1 0
BITMAP
60
60
00
00
60
60
60
60
60
60
60
F0
ENDCHAR
STARTCHAR 13A6
ENCODING 5030
SWIDTH 720 0
DWIDTH 12 0
BBX 10 12 1 0
BITMAP
1E00
2180
6180
6000
3000
FFC0
0600
0100
0180
6180
6300
3E00
ENDCHAR
STARTCHAR 13A7
ENCODING 5031
SWIDTH 840 0
DWIDTH 14 0
BBX 12 12 1 0
BITMAP
1F00
60C0
0060
3830
4C30
C430
8430
8430
C820
7060
70C0
1F00
ENDCHAR
STARTCHAR 13A8
ENCODING 5032
SWIDTH 720 0
DWIDTH 12 0
BBX 11 12 1 0
BITMAP
F000
2000
2000
2200
2E20
3A40
23C0
2000
2000
2000
2000
F000
ENDCHAR
STARTCHAR 13A9
ENCODING 5033
SWIDTH 780 0
DWIDTH 13 0
BBX 11 12 1 0
BITMAP
F1E0
6040
60C0
3080
3180
1100
0B00
0A00
0600
0400
6800
7000
ENDCHAR
STARTCHAR 13AA
ENCODING 5034
SWIDTH 780 0
DWIDTH 13 0
BBX 13 12 0 0
BITMAP
0700
0500
0500
0D80
0880
0880
10C0
1FC0
3040
2060
2020
F0F8
ENDCHAR
STARTCHAR 13AB
ENCODING 5035
SWIDTH 600 0
DWIDTH 10 0
BBX 9 12 0 0
BITMAP
0780
0300
0300
0300
0300
0300
0300
0300
4300
C200
4600
3C00
ENDCHAR
STARTCHAR 13AC
ENCODING 5036
SWIDTH 720 0
DWIDTH 12 0
BBX 10 12 1 0
BITMAP
FFC0
2040
2040
2000
2200
3E00
2200
2200
2000
2040
2040
FFC0
ENDCHAR
STARTCHAR 13AD
ENCODING 5037
SWIDTH 1020 0
DWIDTH 17 0
BBX 16 12 1 0
BITMAP
03E0
0080
0080
7080
C89F
8F8C
8688
8C90
8890
78A0
00E0
00C0
ENDCHAR
STARTCHAR 13AE
ENCODING 5038
SWIDTH 660 0
DWIDTH 11 0
BBX 9 13 1 0
BITMAP
7E00
4300
0180
0080
F080
2180
2300
3E00
2000
2000
2000
2000
F000
ENDCHAR
STARTCHAR 13AF
ENCODING 5039
SWIDTH 780 0
DWIDTH 13 0
BBX 12 12 0 0
BITMAP
03C0
0460
0C20
0830
0830
0830
0FF0
0830
1830
1020
50A0
E0C0
ENDCHAR
STARTCHAR 13B0
ENCODING 5040
SWIDTH 600 0
DWIDTH 10 0
BBX 8 12 1 0
BITMAP
F0
20
20
20
21
3F
21
21
20
20
20
F0
ENDCHAR
STARTCHAR 13B1
ENCODING 5041
SWIDTH 660 0
DWIDTH 11 0
BBX 9 12 1 0
BITMAP
FF80
2080
2080
2000
2000
2000
2000
2000
2000
2000
2000
F800
ENDCHAR
STARTCHAR 13B2
ENCODING 5042
SWIDTH 900 0
DWIDTH 15 0
BBX 14 12 1 0
BITMAP
0F00
1980
1080
1080
1080
1080
1880
093C
8D08
8618
CF10
79E0
ENDCHAR
STARTCHAR 13B3
ENCODING 5043
SWIDTH 1080 0
DWIDTH 18 0
BBX 18 12 0 0
BITMAP
F9E3C0
204180
30C100
30C100
10E300
112200
192200
192600
0B3400
0A1400
0E1C00
061800
ENDCHAR
STARTCHAR 13B4
ENCODING 5044
SWIDTH 780 0
DWIDTH 13 0
BBX 12 12 1 0
BITMAP
01E0
0330
0230
0220
3A00
4600
8200
8200
8200
8600
C400
7800
ENDCHAR
STARTCHAR 13B5
ENCODING 5045
SWIDTH 720 0
DWIDTH 12 0
BBX 10 12 1 0
BITMAP
1F00
3180
20C0
60C0
60C0
6080
6380
6000
6000
6000
6000
F000
ENDCHAR
STARTCHAR 13B6
ENCODING 5046
SWIDTH 720 0
DWIDTH 12 0
BBX 10 12 1 0
BITMAP
1F00
30C0
6040
C000
C200
C380
C2C0
C240
C040
4040
3180
1F00
ENDCHAR
STARTCHAR 13B7
ENCODING 5047
SWIDTH 1020 0
DWIDTH 17 0
BBX 15 12 1 0
BITMAP
F01E
3818
3828
2828
2C28
2C48
2448
2648
2688
2288
2288
F31E
ENDCHAR
STARTCHAR 13B8
ENCODING 5048
SWIDTH 840 0
DWIDTH 14 0
BBX 12 12 1 0
BITMAP
0F00
10C0
18C0
0040
8040
8040
F0C0
9F40
0040
0040
0040
01F0
ENDCHAR
STARTCHAR 13B9
ENCODING 5049
SWIDTH 1020 0
DWIDTH 17 0
BBX 16 12 0 0
BITMAP
0F8E
0231
0261
03C1
0603
3C04
6B00
D900
1180
1180
1900
0E00
ENDCHAR
STARTCHAR 13BA
ENCODING 5050
SWIDTH 1080 0
DWIDTH 18 0
BBX 15 12 1 0
BITMAP
1F02
31C2
4042
C062
C062
C07E
C062
C062
C062
4042
3182
1F02
ENDCHAR
STARTCHAR 13BB
ENCODING 5051
SWIDTH 840 0
DWIDTH 14 0
BBX 12 12 1 0
BITMAP
F0F0
2060
2060
2060
2060
3FE0
2060
2060
2060
2060
2060
F0F0
ENDCHAR
STARTCHAR 13BC
ENCODING 5052
SWIDTH 840 0
DWIDTH 14 0
BBX 13 12 0 0
BITMAP
07C0
0100
0100
03E0
C630
7C18
0008
0008
0808
0818
0C30
03E0
ENDCHAR
STARTCHAR 13BD
ENCODING 5053
SWIDTH 840 0
DWIDTH 14 0
BBX 13 12 0 0
BITMAP
6078
3010
1020
1820
0C40
0440
0680
0280
F300
6300
2600
3C00
ENDCHAR
STARTCHAR 13BE
ENCODING 5054
SWIDTH 780 0
DWIDTH 13 0
BBX 11 12 1 0
BITMAP
1F00
31C0
4040
C060
C020
FFE0
C020
C060
C060
6040
31C0
1F00
ENDCHAR
STARTCHAR 13BF
ENCODING 5055
SWIDTH 780 0
DWIDTH 13 0
BBX 12 13 1 -1
BITMAP
2000
2000
FC00
2000
2000
2000
2000
23F0
20C0
20C0
31C0
1EC0
00C0
ENDCHAR
STARTCHAR 13C0
ENCODING 5056
SWIDTH 780 0
DWIDTH 13 0
BBX 11 12 1 0
BITMAP
1F80
30C0
6040
C040
C000
C000
C000
C1E0
C040
40C0
71C0
1E40
ENDCHAR
STARTCHAR 13C1
ENCODING 5057
SWIDTH 840 0
DWIDTH 14 0
BBX 13 12 0 0
BITMAP
03C0
0460
0C30
0830
0830
0830
0830
0830
1830
1030
D030
E078
ENDCHAR
STARTCHAR 13C2
ENCODING 5058
SWIDTH 780 0
DWIDTH 13 0
BBX 12 12 1 0
BITMAP
F800
2000
2000
2000
2F80
38C0
30C0
2040
2040
2040
2040
F1F0
ENDCHAR
STARTCHAR 13C3
ENCODING 5059
SWIDTH 660 0
DWIDTH 11 0
BBX 9 12 1 0
BITMAP
FF80
8180
8300
0200
0400
0C00
1800
3000
2000
4080
C080
FF80
ENDCHAR
STARTCHAR 13C4
ENCODING 5060
SWIDTH 720 0
DWIDTH 12 0
BBX 10 12 1 0
BITMAP
3E00
6300
4180
E180
0080
E180
4180
6380
3E80
0080
0080
03C0
ENDCHAR
STARTCHAR 13C5
ENCODING 5061
SWIDTH 1140 0
DWIDTH 19 0
BBX 18 12 1 0
BITMAP
1F0000
718000
40C000
C04000
C05C40
C07480
C04780
C04000
C04000
40C000
718000
1F0000
ENDCHAR
STARTCHAR 13C6
ENCODING 5062
SWIDTH 780 0
DWIDTH 13 0
BBX 11 12 1 0
BITMAP
FFC0
8440
8440
0400
0400
0400
0400
0400
0400
4420
4420
7FE0
ENDCHAR
STARTCHAR 13C7
ENCODING 5063
SWIDTH 1080 0
DWIDTH 18 0
BBX 16 12 1 0
BITMAP
00F8
030C
0206
0002
0002
C103
8103
8102
8102
8386
C68C
7C78
ENDCHAR
STARTCHAR 13C8
ENCODING 5064
SWIDTH 900 0
DWIDTH 15 0
BBX 13 12 1 0
BITMAP
78F0
C718
8608
8508
0998
1880
1880
10C0
10C0
1080
1980
0F00
ENDCHAR
STARTCHAR 13C9
ENCODING 5065
SWIDTH 1320 0
DWIDTH 22 0
BBX 21 12 1 0
BITMAP
040CF0
060F98
020808
021918
E210F0
B31000
873000
8D2000
F92000
01E000
00C000
00C000
ENDCHAR
STARTCHAR 13CA
ENCODING 5066
SWIDTH 1080 0
DWIDTH 18 0
BBX 16 12 1 0
BITMAP
00F8
030E
0202
0003
0001
40E1
81E1
8101
8103
C302
C686
7C78
ENDCHAR
STARTCHAR 13CB
ENCODING 5067
SWIDTH 660 0
DWIDTH 11 0
BBX 9 12 1 0
BITMAP
3F00
6100
4000
4000
6000
3F00
6000
C300
C080
C080
6180
3E00
ENDCHAR
STARTCHAR 13CC
ENCODING 5068
SWIDTH 840 0
DWIDTH 14 0
BBX 12 12 1 0
BITMAP
F0F0
6060
6060
6060
6060
7FE0
6060
6060
6060
2040
30C0
1F80
ENDCHAR
STARTCHAR 13CD
ENCODING 5069
SWIDTH 1080 0
DWIDTH 18 0
BBX 16 12 1 0
BITMAP
03F0
0C1C
1006
0002
0003
38F3
C463
86E3
8763
8662
C466
783C
ENDCHAR
STARTCHAR 13CE
ENCODING 5070
SWIDTH 660 0
DWIDTH 11 0
BBX 10 12 0 0
BITMAP
0300
0500
0D00
0900
1100
3100
6100
4100
FFC0
0100
0100
0780
ENDCHAR
STARTCHAR 13CF
ENCODING 5071
SWIDTH 660 0
DWIDTH 11 0
BBX 10 12 1 0
BITMAP
F800
2000
2000
2000
2000
3F00
2180
20C0
20C0
20C0
2180
FF00
ENDCHAR
STARTCHAR 13D0
ENCODING 5072
SWIDTH 720 0
DWIDTH 12 0
BBX 11 12 0 0
BITMAP
0F00
0600
0600
0600
07C0
4620
CE60
7E00
0600
0600
0600
0F00
ENDCHAR
STARTCHAR 13D1
ENCODING 5073
SWIDTH 900 0
DWIDTH 15 0
BBX 13 12 1 0
BITMAP
7070
9988
8B08
9E08
7818
1030
1000
1E00
3300
3100
1300
1E00
ENDCHAR
STARTCHAR 13D2
ENCODING 5074
SWIDTH 780 0
DWIDTH 13 0
BBX 11 12 1 0
BITMAP
FF00
20C0
2040
2040
2040
26C0
2300
2300
2100
2180
2080
F9E0
ENDCHAR
STARTCHAR 13D3
ENCODING 5075
SWIDTH 660 0
DWIDTH 11 0
BBX 9 12 1 0
BITMAP
F000
6000
6000
6000
6000
6700
6580
6480
6080
2180
3100
1E00
ENDCHAR
STARTCHAR 13D4
ENCODING 5076
SWIDTH 1020 0
DWIDTH 17 0
BBX 16 12 0 0
BITMAP
C221
6323
6142
2142
31C6
3084
1184
11C8
1948
0A58
0A70
0E30
ENDCHAR
STARTCHAR 13D5
ENCODING 5077
SWIDTH 720 0
DWIDTH 12 0
BBX 10 12 1 0
BITMAP
3E00
6300
41C0
4000
6000
3800
0E00
0300
01C0
C100
C300
7E00
ENDCHAR
STARTCHAR 13D6
ENCODING 5078
SWIDTH 780 0
DWIDTH 13 0
BBX 11 12 1 0
BITMAP
FFC0
8C00
8C00
0C00
0C00
0FC0
0E60
0C20
0C20
0C20
0460
03C0
ENDCHAR
STARTCHAR 13D7
ENCODING 5079
SWIDTH 720 0
DWIDTH 12 0
BBX 11 12 0 0
BITMAP
01E0
00C0
00C0
00C0
00C0
00C0
01C0
01C0
03C0
06C0
CCC0
70E0
ENDCHAR
STARTCHAR 13D8
ENCODING 5080
SWIDTH 780 0
DWIDTH 13 0
BBX 12 12 0 0
BITMAP
1FF0
1040
1040
0040
00C0
00C0
00C0
0140
0140
0240
CC40
7840
ENDCHAR
STARTCHAR 13D9
ENCODING 5081
SWIDTH 780 0
DWIDTH 13 0
BBX 13 12 0 0
BITMAP
F8F8
2020
3060
3040
1040
18C0
1880
0880
0900
0D00
0700
0600
ENDCHAR
STARTCHAR 13DA
ENCODING 5082
SWIDTH 600 0
DWIDTH 10 0
BBX 8 12 1 0
BITMAP
3E
61
41
40
60
38
0E
03
01
C1
C3
7C
ENDCHAR
STARTCHAR 13DB
ENCODING 5083
SWIDTH 1080 0
DWIDTH 18 0
BBX 16 12 1 0
BITMAP
1F9E
34F1
6461
4461
C40F
C400
C400
C400
C400
C400
4C00
3800
ENDCHAR
STARTCHAR 13DC
ENCODING 5084
SWIDTH 840 0
DWIDTH 14 0
BBX 12 12 1 0
BITMAP
0F00
1900
1180
1100
0F00
0F00
30C0
70E0
8910
8910
9930
70E0
ENDCHAR
STARTCHAR 13DD
ENCODING 5085
SWIDTH 720 0
DWIDTH 12 0
BBX 9 12 1 0
BITMAP
1F00
3080
2080
6080
6000
6000
6000
6000
6000
6080
6080
FF80
ENDCHAR
STARTCHAR 13DE
ENCODING 5086
SWIDTH 660 0
DWIDTH 11 0
BBX 9 12 1 0
BITMAP
F800
2000
2000
2000
2000
2000
2000
2000
2000
2080
2080
FF80
ENDCHAR
STARTCHAR 13DF
ENCODING 5087
SWIDTH 720 0
DWIDTH 12 0
BBX 10 12 1 0
BITMAP
1F00
30C0
60C0
C000
C000
C000
C000
C000
C000
40C0
7180
1F00
ENDCHAR
STARTCHAR 13E0
ENCODING 5088
SWIDTH 900 0
DWIDTH 15 0
BBX 13 12 1 0
BITMAP
0078
7030
8830
8830
8830
FFF0
0830
0830
0820
0C20
0460
03C0
ENDCHAR
STARTCHAR 13E1
ENCODING 5089
SWIDTH 900 0
DWIDTH 15 0
BBX 14 12 0 0
BITMAP
1E78
33CC
2184
6344
F260
0620
0420
0420
0420
0420
0660
03C0
ENDCHAR
STARTCHAR 13E2
ENCODING 5090
SWIDTH 660 0
DWIDTH 11 0
BBX 10 12 1 0
BITMAP
FF00
2180
20C0
20C0
20C0
2180
3F00
2000
2000
2000
2000
F800
ENDCHAR
STARTCHAR 13E3
ENCODING 5091
SWIDTH 780 0
DWIDTH 13 0
BBX 11 12 1 0
BITMAP
1F00
3180
40C0
C1E0
C000
C000
C000
C0C0
C040
40C0
7180
1F00
ENDCHAR
STARTCHAR 13E4
ENCODING 5092
SWIDTH 840 0
DWIDTH 14 0
BBX 12 12 1 0
BITMAP
FE10
8830
8860
0840
08C0
0880
0980
0900
0B00
0A00
0A00
0C00
ENDCHAR
STARTCHAR 13E5
ENCODING 5093
SWIDTH 900 0
DWIDTH 15 0
BBX 14 12 1 0
BITMAP
F000
2000
2000
2000
23F0
2C8C
308C
208C
2080
2080
2080
F1E0
ENDCHAR
STARTCHAR 13E6
ENCODING 5094
SWIDTH 780 0
DWIDTH 13 0
BBX 12 12 1 0
BITMAP
F1E0
20C0
2180
2300
2600
2E00
2E00
3300
2180
2080
20C0
F1F0
ENDCHAR
STARTCHAR 13E7
ENCODING 5095
SWIDTH 600 0
DWIDTH 10 0
BBX 8 12 1 0
BITMAP
0F
06
06
06
06
7E
CE
86
86
84
CC
78
ENDCHAR
STARTCHAR 13E8
ENCODING 5096
SWIDTH 840 0
DWIDTH 14 0
BBX 13 12 1 0
BITMAP
1E40
31F8
60F0
C000
C000
C000
C000
C000
C000
40B0
6178
1E40
ENDCHAR
STARTCHAR 13E9
ENCODING 5097
SWIDTH 900 0
DWIDTH 15 0
BBX 14 12 1 0
BITMAP
1F00
30C0
60C0
C0C0
C000
C000
C000
C1E0
C040
40C4
71CC
1F38
ENDCHAR
STARTCHAR 13EA
ENCODING 5098
SWIDTH 1080 0
DWIDTH 18 0
BBX 16 12 1 0
BITMAP
0F0E
1999
1991
1091
1091
1191
1989
090B
8906
8606
CF0C
79F0
ENDCHAR
STARTCHAR 13EB
ENCODING 5099
SWIDTH 780 0
DWIDTH 13 0
BBX 11 12 1 0
BITMAP
1F00
31C0
6040
C060
FC60
C420
C420
C7E0
C060
4040
30C0
1F00
ENDCHAR
STARTCHAR 13EC
ENCODING 5100
SWIDTH 1080 0
DWIDTH 18 0
BBX 16 12 1 0
BITMAP
3C1C
6622
C663
C261
C231
C611
C603
4402
6806
300C
1C18
07E0
ENDCHAR
STARTCHAR 13ED
ENCODING 5101
SWIDTH 660 0
DWIDTH 11 0
BBX 9 12 1 0
BITMAP
1E00
6300
4100
4180
4180
2180
1180
0D00
8300
8300
C600
3C00
ENDCHAR
STARTCHAR 13EE
ENCODING 5102
SWIDTH 660 0
DWIDTH 11 0
BBX 9 12 1 0
BITMAP
1E00
3100
6100
4000
5E00
E300
C100
C180
C180
4100
6300
3E00
ENDCHAR
STARTCHAR 13EF
ENCODING 5103
SWIDTH 1080 0
DWIDTH 18 0
BBX 16 12 1 0
BITMAP
03F0
060C
0006
0003
0001
CEF1
8381
8101
8103
C382
46C6
3C78
ENDCHAR
STARTCHAR 13F0
ENCODING 5104
SWIDTH 780 0
DWIDTH 13 0
BBX 11 16 1 -4
BITMAP
07C0
0C60
0820
0820
0840
0980
09C0
8860
8820
C820
7860
1F80
0800
0800
0800
0800
ENDCHAR
STARTCHAR 13F1
ENCODING 5105
SWIDTH 840 0
DWIDTH 14 0
BBX 12 12 1 0
BITMAP
0F00
0200
0200
0780
0C60
9830
7010
6310
6610
4410
8620
03C0
ENDCHAR
STARTCHAR 13F2
ENCODING 5106
SWIDTH 780 0
DWIDTH 13 0
BBX 11 12 1 0
BITMAP
0F00
3080
20C0
6080
6000
6F00
7180
60C0
60C0
60C0
60C0
F1E0
ENDCHAR
STARTCHAR 13F3
ENCODING 5107
SWIDTH 840 0
DWIDTH 14 0
BBX 13 12 1 0
BITMAP
1E40
31F8
60F0
C000
C000
C000
C000
C1E0
C040
40C0
7140
1E40
ENDCHAR
STARTCHAR 13F4
ENCODING 5108
SWIDTH 720 0
DWIDTH 12 0
BBX 10 12 1 0
BITMAP
FF00
20C0
20C0
20C0
2080
3F00
20C0
2040
2040
2040
20C0
FF00
ENDCHAR
STARTCHAR 13F5
ENCODING 5109
SWIDTH 780 0
DWIDTH 13 0
BBX 11 12 1 0
BITMAP
03C0
0E00
3800
6000
4000
C000
C1E0
C040
C040
C040
60C0
1F80
ENDCHAR
STARTCHAR 13F8
ENCODING 5112
SWIDTH 660 0
DWIDTH 11 0
BBX 9 12 1 -3
BITMAP
0F00
1980
1180
1100
1200
9180
9080
F180
3F00
1000
1000
1000
ENDCHAR
STARTCHAR 13F9
ENCODING 5113
SWIDTH 660 0
DWIDTH 11 0
BBX 10 9 1 0
BITMAP
1E00
0C00
0E00
1980
F0C0
44C0
48C0
8880
0700
ENDCHAR
STARTCHAR 13FA
ENCODING 5114
SWIDTH 600 0
DWIDTH 10 0
BBX 9 9 1 0
BITMAP
3E00
6200
4000
5C00
6200
4200
4300
4300
E780
ENDCHAR
STARTCHAR 13FB
ENCODING 5115
SWIDTH 660 0
DWIDTH 11 0
BBX 10 9 1 0
BITMAP
3D40
63C0
C280
8000
8000
8780
C300
4300
3F00
ENDCHAR
STARTCHAR 13FC
ENCODING 5116
SWIDTH 600 0
DWIDTH 10 0
BBX 8 9 1 0
BITMAP
FE
43
43
42
7C
43
41
43
FE
ENDCHAR
STARTCHAR 13FD
ENCODING 5117
SWIDTH 600 0
DWIDTH 10 0
BBX 9 9 1 0
BITMAP
0600
3800
6000
C000
8000
8780
8300
C300
3E00
ENDCHAR
STARTCHAR 1E80
ENCODING 7808
SWIDTH 960 0
DWIDTH 16 0
BBX 16 16 0 0
BITMAP
0200
0300
0180
0000
C183
4182
4386
62C6
6244
2644
266C
346C
3428
1C28
1838
1810
ENDCHAR
STARTCHAR 1E81
ENCODING 7809
SWIDTH 780 0
DWIDTH 13 0
BBX 13 13 0 0
BITMAP
0C00
0600
0300
0000
C308
4718
4510
6590
6CB0
2CB0
28A0
38E0
1860
ENDCHAR
STARTCHAR 1E82
ENCODING 7810
SWIDTH 960 0
DWIDTH 16 0
BBX 16 16 0 0
BITMAP
00C0
0080
0100
0000
C183
4182
4386
62C6
6244
2644
266C
346C
3428
1C28
1838
1810
ENDCHAR
STARTCHAR 1E83
ENCODING 7811
SWIDTH 780 0
DWIDTH 13 0
BBX 13 13 0 0
BITMAP
0180
0300
0600
0000
C308
4718
4510
6590
6CB0
2CB0
28A0
38E0
1860
ENDCHAR
STARTCHAR 1E84
ENCODING 7812
SWIDTH 960 0
DWIDTH 16 0
BBX 16 15 0 0
BITMAP
0240
0000
0000
C183
4182
4386
62C6
6244
2644
266C
346C
3428
1C28
1838
1810
ENDCHAR
STARTCHAR 1E85
ENCODING 7813
SWIDTH 780 0
DWIDTH 13 0
BBX 13 12 0 0
BITMAP
0D80
0000
0000
C308
4718
4510
6590
6CB0
2CB0
28A0
38E0
1860
ENDCHAR
STARTCHAR 1E9E
ENCODING 7838
SWIDTH 720 0
DWIDTH 12 0
BBX 9 12 2 0
BITMAP
3C00
C300
8300
8600
8C00
8F00
8180
8080
8080
8080
A180
BF00
ENDCHAR
STARTCHAR 1EF2
ENCODING 7922
SWIDTH 600 0
DWIDTH 10 0
BBX 10 16 0 0
BITMAP
1000
1800
0C00
0000
C0C0
4180
6100
3300
3200
1E00
0C00
0C00
0C00
0C00
0C00
0C00
ENDCHAR
STARTCHAR 1EF3
ENCODING 7923
SWIDTH 540 0
DWIDTH 9 0
BBX 9 17 0 -4
BITMAP
3000
1800
0C00
0000
C180
4100
6300
6200
2600
3600
1400
1C00
1800
1800
1800
3000
E000
ENDCHAR
STARTCHAR 2013
ENCODING 8211
SWIDTH 540 0
DWIDTH 9 0
BBX 7 1 1 4
BITMAP
FE
ENDCHAR
STARTCHAR 2014
ENCODING 8212
SWIDTH 1020 0
DWIDTH 17 0
BBX 15 1 1 4
BITMAP
FFFE
ENDCHAR
STARTCHAR 2018
ENCODING 8216
SWIDTH 180 0
DWIDTH 3 0
BBX 3 4 0 8
BITMAP
60
40
40
C0
ENDCHAR
STARTCHAR 2019
ENCODING 8217
SWIDTH 180 0
DWIDTH 3 0
BBX 3 4 0 8
BITMAP
60
40
40
C0
ENDCHAR
STARTCHAR 201A
ENCODING 8218
SWIDTH 240 0
DWIDTH 4 0
BBX 2 4 1 -2
BITMAP
C0
C0
80
80
ENDCHAR
STARTCHAR 201C
ENCODING 8220
SWIDTH 360 0
DWIDTH 6 0
BBX 6 4 0 8
BITMAP
64
4C
48
D8
ENDCHAR
STARTCHAR 201D
ENCODING 8221
SWIDTH 360 0
DWIDTH 6 0
BBX 6 4 0 8
BITMAP
6C
48
48
D8
ENDCHAR
STARTCHAR 201E
ENCODING 8222
SWIDTH 420 0
DWIDTH 7 0
BBX 5 4 1 -2
BITMAP
D8
D8
90
90
ENDCHAR
STARTCHAR 2022
ENCODING 8226
SWIDTH 360 0
DWIDTH 6 0
BBX 4 4 1 4
BITMAP
70
F0
F0
70
ENDCHAR
STARTCHAR 2026
ENCODING 8230
SWIDTH 780 0
DWIDTH 13 0
BBX 11 2 1 0
BITMAP
C660
C660
ENDCHAR
STARTCHAR 2039
ENCODING 8249
SWIDTH 300 0
DWIDTH 5 0
BBX 4 7 1 1
BITMAP
30
60
C0
80
C0
60
30
ENDCHAR
STARTCHAR 203A
ENCODING 8250
SWIDTH 300 0
DWIDTH 5 0
BBX 4 7 1 1
BITMAP
80
C0
60
30
60
C0
80
ENDCHAR
STARTCHAR 20AC
ENCODING 8364
SWIDTH 600 0
DWIDTH 10 0
BBX 10 12 0 0
BITMAP
0FC0
1880
3000
2000
FE00
2000
2000
FE00
2000
3000
1880
0F80
ENDCHAR
STARTCHAR 2122
ENCODING 8482
SWIDTH 780 0
DWIDTH 13 0
BBX 12 6 0 6
BITMAP
FA30
2330
2350
2350
22D0
2290
ENDCHAR
STARTCHAR 2212
ENCODING 8722
SWIDTH 300 0
DWIDTH 5 0
BBX 4 1 1 4
BITMAP
F0
ENDCHAR
STARTCHAR AB70
ENCODING 43888
SWIDTH 660 0
DWIDTH 11 0
BBX 9 9 1 0
BITMAP
FC00
4300
4100
4180
4180
4180
4100
4300
FC00
ENDCHAR
STARTCHAR AB71
ENCODING 43889
SWIDTH 600 0
DWIDTH 10 0
BBX 8 9 1 0
BITMAP
FC
42
42
42
7C
46
42
42
E3
ENDCHAR
STARTCHAR AB72
ENCODING 43890
SWIDTH 540 0
DWIDTH 9 0
BBX 8 9 1 0
BITMAP
FF
91
91
10
10
10
10
10
3C
ENDCHAR
STARTCHAR AB73
ENCODING 43891
SWIDTH 720 0
DWIDTH 12 0
BBX 10 9 1 0
BITMAP
0E00
0400
0F00
7180
88C0
8840
8840
88C0
7380
ENDCHAR
STARTCHAR AB74
ENCODING 43892
SWIDTH 900 0
DWIDTH 15 0
BBX 13 9 1 0
BITMAP
3C70
4648
C348
8108
8198
81F0
C300
4600
3C00
ENDCHAR
STARTCHAR AB75
ENCODING 43893
SWIDTH 300 0
DWIDTH 5 0
BBX 3 9 1 0
BITMAP
40
00
00
40
40
40
40
40
E0
ENDCHAR
STARTCHAR AB76
ENCODING 43894
SWIDTH 540 0
DWIDTH 9 0
BBX 7 9 1 0
BITMAP
7C
44
C4
40
FE
0C
44
84
78
ENDCHAR
STARTCHAR AB77
ENCODING 43895
SWIDTH 660 0
DWIDTH 11 0
BBX 9 9 1 0
BITMAP
3E00
4300
7180
D880
8880
9080
B180
6300
3E00
ENDCHAR
STARTCHAR AB78
ENCODING 43896
SWIDTH 600 0
DWIDTH 10 0
BBX 9 9 1 0
BITMAP
E000
4000
4000
4980
7900
4700
4000
4000
E000
ENDCHAR
STARTCHAR AB79
ENCODING 43897
SWIDTH 600 0
DWIDTH 10 0
BBX 10 9 0 0
BITMAP
F3C0
2180
3100
1300
1A00
0E00
0C00
6800
3000
ENDCHAR
STARTCHAR AB7A
ENCODING 43898
SWIDTH 600 0
DWIDTH 10 0
BBX 10 9 0 0
BITMAP
0C00
0C00
1200
1200
1300
3F00
2100
6180
F3C0
ENDCHAR
STARTCHAR AB7B
ENCODING 43899
SWIDTH 480 0
DWIDTH 8 0
BBX 7 9 0 0
BITMAP
0E
04
04
04
04
04
44
CC
78
ENDCHAR
STARTCHAR AB7C
ENCODING 43900
SWIDTH 540 0
DWIDTH 9 0
BBX 8 9 1 0
BITMAP
FF
41
40
44
78
44
40
41
FF
ENDCHAR
STARTCHAR AB7D
ENCODING 43901
SWIDTH 840 0
DWIDTH 14 0
BBX 12 9 1 0
BITMAP
0700
0200
F200
9270
9E60
9240
F280
0380
0300
ENDCHAR
STARTCHAR AB7E
ENCODING 43902
SWIDTH 540 0
DWIDTH 9 0
BBX 7 10 1 0
BITMAP
78
86
02
E2
46
7C
40
40
40
E0
ENDCHAR
STARTCHAR AB7F
ENCODING 43903
SWIDTH 660 0
DWIDTH 11 0
BBX 10 9 0 0
BITMAP
0700
0880
18C0
10C0
1FC0
10C0
10C0
1080
E380
ENDCHAR
STARTCHAR AB80
ENCODING 43904
SWIDTH 480 0
DWIDTH 8 0
BBX 6 9 1 0
BITMAP
E0
40
40
44
7C
44
40
40
E0
ENDCHAR
STARTCHAR AB81
ENCODING 43905
SWIDTH 540 0
DWIDTH 9 0
BBX 7 9 1 0
BITMAP
FE
42
42
40
40
40
40
40
F0
ENDCHAR
STARTCHAR AB82
ENCODING 43906
SWIDTH 720 0
DWIDTH 12 0
BBX 11 9 1 0
BITMAP
1C00
3200
2200
2200
3200
16A0
9C40
8C40
F780
ENDCHAR
STARTCHAR AB83
ENCODING 43907
SWIDTH 840 0
DWIDTH 14 0
BBX 14 9 0 0
BITMAP
F39C
6308
2318
2390
3290
14B0
14A0
14E0
1860
ENDCHAR
STARTCHAR AB84
ENCODING 43908
SWIDTH 660 0
DWIDTH 11 0
BBX 9 9 1 0
BITMAP
0700
0C80
0D80
7C00
CC00
8C00
8800
C800
7000
ENDCHAR
STARTCHAR AB85
ENCODING 43909
SWIDTH 540 0
DWIDTH 9 0
BBX 8 9 1 0
BITMAP
3C
62
43
42
4E
40
40
40
E0
ENDCHAR
STARTCHAR AB86
ENCODING 43910
SWIDTH 600 0
DWIDTH 10 0
BBX 8 9 1 0
BITMAP
3E
62
C2
88
8E
8B
C1
63
3C
ENDCHAR
STARTCHAR AB87
ENCODING 43911
SWIDTH 840 0
DWIDTH 14 0
BBX 12 9 1 0
BITMAP
E0F0
70E0
50E0
5160
5960
4B60
4A60
4660
E6F0
ENDCHAR
STARTCHAR AB88
ENCODING 43912
SWIDTH 660 0
DWIDTH 11 0
BBX 9 9 1 0
BITMAP
3E00
3300
8100
8100
E300
BD00
0100
0100
0380
ENDCHAR
STARTCHAR AB89
ENCODING 43913
SWIDTH 840 0
DWIDTH 14 0
BBX 13 9 0 0
BITMAP
0E70
04C8
0708
3810
5E00
9200
1200
1200
1C00
ENDCHAR
STARTCHAR AB8A
ENCODING 43914
SWIDTH 840 0
DWIDTH 14 0
BBX 12 9 1 0
BITMAP
3C30
6230
C130
8130
81F0
8130
C130
6330
3C30
ENDCHAR
STARTCHAR AB8B
ENCODING 43915
SWIDTH 660 0
DWIDTH 11 0
BBX 9 9 1 0
BITMAP
E380
4100
4100
4100
7F00
4100
4100
4100
E380
ENDCHAR
STARTCHAR AB8C
ENCODING 43916
SWIDTH 660 0
DWIDTH 11 0
BBX 11 9 0 0
BITMAP
0F00
0600
0780
CCC0
7840
0060
1840
08C0
0780
ENDCHAR
STARTCHAR AB8D
ENCODING 43917
SWIDTH 660 0
DWIDTH 11 0
BBX 10 9 0 0
BITMAP
61C0
2080
1180
1900
0B00
0E00
E600
4C00
3800
ENDCHAR
STARTCHAR AB8E
ENCODING 43918
SWIDTH 600 0
DWIDTH 10 0
BBX 9 9 1 0
BITMAP
3E00
6300
C100
8100
FF80
8100
C100
6300
3C00
ENDCHAR
STARTCHAR AB8F
ENCODING 43919
SWIDTH 660 0
DWIDTH 11 0
BBX 10 10 0 -1
BITMAP
3000
3000
FC00
3000
3000
33C0
3180
3180
1F80
0180
ENDCHAR
STARTCHAR AB90
ENCODING 43920
SWIDTH 600 0
DWIDTH 10 0
BBX 9 9 1 0
BITMAP
3E00
6300
C300
8000
8000
8780
C300
6300
3F00
ENDCHAR
STARTCHAR AB91
ENCODING 43921
SWIDTH 660 0
DWIDTH 11 0
BBX 11 9 0 0
BITMAP
0780
0880
18C0
18C0
10C0
10C0
10C0
F0C0
E1E0
ENDCHAR
STARTCHAR AB92
ENCODING 43922
SWIDTH 660 0
DWIDTH 11 0
BBX 9 9 1 0
BITMAP
E000
4000
4000
5E00
6300
6300
4100
4100
E780
ENDCHAR
STARTCHAR AB93
ENCODING 43923
SWIDTH 540 0
DWIDTH 9 0
BBX 7 9 1 0
BITMAP
FE
84
0C
18
10
20
40
C2
FE
ENDCHAR
STARTCHAR AB94
ENCODING 43924
SWIDTH 600 0
DWIDTH 10 0
BBX 9 9 0 0
BITMAP
1E00
2300
F100
0100
F100
2300
3D00
0100
0380
ENDCHAR
STARTCHAR AB95
ENCODING 43925
SWIDTH 900 0
DWIDTH 15 0
BBX 14 9 1 0
BITMAP
3C00
4600
C300
8144
81EC
8138
C300
4600
3C00
ENDCHAR
STARTCHAR AB96
ENCODING 43926
SWIDTH 600 0
DWIDTH 10 0
BBX 8 9 1 0
BITMAP
FF
99
18
18
18
18
18
99
FF
ENDCHAR
STARTCHAR AB97
ENCODING 43927
SWIDTH 840 0
DWIDTH 14 0
BBX 12 9 1 0
BITMAP
07C0
0C60
0030
0010
8410
8410
8430
8A20
7BC0
ENDCHAR
STARTCHAR AB98
ENCODING 43928
SWIDTH 720 0
DWIDTH 12 0
BBX 10 9 1 0
BITMAP
73C0
8C40
8C40
12C0
3200
3300
3300
3200
1E00
ENDCHAR
STARTCHAR AB99
ENCODING 43929
SWIDTH 1080 0
DWIDTH 18 0
BBX 17 9 0 0
BITMAP
043380
043C80
062080
766780
D64000
CE4000
7BC000
018000
018000
ENDCHAR
STARTCHAR AB9A
ENCODING 43930
SWIDTH 900 0
DWIDTH 15 0
BBX 13 9 1 0
BITMAP
03C0
0430
0010
0318
8798
8418
8410
CA30
79E0
ENDCHAR
STARTCHAR AB9B
ENCODING 43931
SWIDTH 540 0
DWIDTH 9 0
BBX 7 9 1 0
BITMAP
7C
C0
C0
3C
40
86
82
C6
7C
ENDCHAR
STARTCHAR AB9C
ENCODING 43932
SWIDTH 660 0
DWIDTH 11 0
BBX 9 9 1 0
BITMAP
E380
4100
4100
4100
7F00
4100
4100
6300
3E00
ENDCHAR
STARTCHAR AB9D
ENCODING 43933
SWIDTH 840 0
DWIDTH 14 0
BBX 13 9 1 0
BITMAP
0FC0
3060
0030
7390
8918
8F18
8910
8990
70E0
ENDCHAR
STARTCHAR AB9E
ENCODING 43934
SWIDTH 480 0
DWIDTH 8 0
BBX 8 9 0 0
BITMAP
0C
0C
14
24
64
44
FF
04
0E
ENDCHAR
STARTCHAR AB9F
ENCODING 43935
SWIDTH 540 0
DWIDTH 9 0
BBX 7 9 1 0
BITMAP
E0
40
40
40
7C
42
42
42
FC
ENDCHAR
STARTCHAR ABA0
ENCODING 43936
SWIDTH 540 0
DWIDTH 9 0
BBX 9 9 0 0
BITMAP
1C00
0800
0800
4F00
CC80
7980
0800
0800
1C00
ENDCHAR
STARTCHAR ABA1
ENCODING 43937
SWIDTH 720 0
DWIDTH 12 0
BBX 10 9 1 0
BITMAP
E3C0
9640
9C40
F040
2080
3C00
2400
2400
3C00
ENDCHAR
STARTCHAR ABA2
ENCODING 43938
SWIDTH 600 0
DWIDTH 10 0
BBX 8 9 1 0
BITMAP
FE
43
43
43
4E
4C
44
46
E7
ENDCHAR
STARTCHAR ABA3
ENCODING 43939
SWIDTH 540 0
DWIDTH 9 0
BBX 7 9 1 0
BITMAP
E0
40
40
40
4E
4A
42
62
3C
ENDCHAR
STARTCHAR ABA4
ENCODING 43940
SWIDTH 840 0
DWIDTH 14 0
BBX 13 9 0 0
BITMAP
C488
4598
6710
2310
2320
3320
1560
15C0
18C0
ENDCHAR
STARTCHAR ABA5
ENCODING 43941
SWIDTH 600 0
DWIDTH 10 0
BBX 8 9 1 0
BITMAP
7C
C7
80
C0
38
0C
07
8C
78
ENDCHAR
STARTCHAR ABA6
ENCODING 43942
SWIDTH 660 0
DWIDTH 11 0
BBX 9 9 1 0
BITMAP
FF00
9000
9000
1000
1700
1980
1080
1980
0F00
ENDCHAR
STARTCHAR ABA7
ENCODING 43943
SWIDTH 600 0
DWIDTH 10 0
BBX 9 9 0 0
BITMAP
0780
0300
0300
0300
0300
0700
0700
CB00
7380
ENDCHAR
STARTCHAR ABA8
ENCODING 43944
SWIDTH 600 0
DWIDTH 10 0
BBX 9 9 0 0
BITMAP
3F80
2100
2100
0300
0300
0300
0500
C900
7100
ENDCHAR
STARTCHAR ABA9
ENCODING 43945
SWIDTH 600 0
DWIDTH 10 0
BBX 10 9 0 0
BITMAP
F3C0
6180
2100
2100
3300
1200
1600
1C00
0C00
ENDCHAR
STARTCHAR ABAA
ENCODING 43946
SWIDTH 480 0
DWIDTH 8 0
BBX 6 9 1 0
BITMAP
7C
C4
84
40
38
0C
84
8C
F8
ENDCHAR
STARTCHAR ABAB
ENCODING 43947
SWIDTH 840 0
DWIDTH 14 0
BBX 13 9 1 0
BITMAP
3E70
6B88
C908
8870
8800
8800
8800
D800
7000
ENDCHAR
STARTCHAR ABAC
ENCODING 43948
SWIDTH 660 0
DWIDTH 11 0
BBX 10 9 1 0
BITMAP
1C00
3200
2200
1400
3E00
E380
94C0
96C0
E380
ENDCHAR
STARTCHAR ABAD
ENCODING 43949
SWIDTH 540 0
DWIDTH 9 0
BBX 7 9 1 0
BITMAP
3C
62
42
40
40
40
40
42
FE
ENDCHAR
STARTCHAR ABAE
ENCODING 43950
SWIDTH 540 0
DWIDTH 9 0
BBX 7 9 1 0
BITMAP
F0
40
40
40
40
40
40
42
FE
ENDCHAR
STARTCHAR ABAF
ENCODING 43951
SWIDTH 540 0
DWIDTH 9 0
BBX 8 9 1 0
BITMAP
3E
62
C2
80
80
80
C3
62
3C
ENDCHAR
STARTCHAR ABB0
ENCODING 43952
SWIDTH 720 0
DWIDTH 12 0
BBX 11 9 0 0
BITMAP
78E0
4840
C840
4840
7FC0
0840
0840
0CC0
0780
ENDCHAR
STARTCHAR ABB1
ENCODING 43953
SWIDTH 720 0
DWIDTH 12 0
BBX 12 9 0 0
BITMAP
3DE0
6730
4510
A5A0
0880
0880
0880
0D80
0700
ENDCHAR
STARTCHAR ABB2
ENCODING 43954
SWIDTH 540 0
DWIDTH 9 0
BBX 7 9 1 0
BITMAP
FC
46
42
42
42
7C
40
40
E0
ENDCHAR
STARTCHAR ABB3
ENCODING 43955
SWIDTH 600 0
DWIDTH 10 0
BBX 8 9 1 0
BITMAP
3C
62
C7
80
80
82
C3
62
3C
ENDCHAR
STARTCHAR ABB4
ENCODING 43956
SWIDTH 660 0
DWIDTH 11 0
BBX 10 9 1 0
BITMAP
FCC0
9080
9100
1300
1200
1600
1400
1C00
1800
ENDCHAR
STARTCHAR ABB5
ENCODING 43957
SWIDTH 720 0
DWIDTH 12 0
BBX 11 9 1 0
BITMAP
E000
4000
4000
4FC0
5260
6260
4200
4200
E700
ENDCHAR
STARTCHAR ABB6
ENCODING 43958
SWIDTH 600 0
DWIDTH 10 0
BBX 9 9 1 0
BITMAP
E780
4200
4400
4800
5800
6C00
4600
4300
E780
ENDCHAR
STARTCHAR ABB7
ENCODING 43959
SWIDTH 480 0
DWIDTH 8 0
BBX 7 9 0 0
BITMAP
0E
04
04
04
7C
44
C4
44
78
ENDCHAR
STARTCHAR ABB8
ENCODING 43960
SWIDTH 660 0
DWIDTH 11 0
BBX 10 9 1 0
BITMAP
3D40
63C0
C280
8000
8000
8000
C280
63C0
3D40
ENDCHAR
STARTCHAR ABB9
ENCODING 43961
SWIDTH 720 0
DWIDTH 12 0
BBX 11 9 1 0
BITMAP
3E00
6300
C300
8000
8000
8780
C320
4320
3DC0
ENDCHAR
STARTCHAR ABBA
ENCODING 43962
SWIDTH 900 0
DWIDTH 15 0
BBX 13 9 1 0
BITMAP
1C70
3658
32C8
22C8
3248
1450
9430
8C60
F7C0
ENDCHAR
STARTCHAR ABBB
ENCODING 43963
SWIDTH 600 0
DWIDTH 10 0
BBX 9 9 1 0
BITMAP
3E00
6300
C100
F980
8980
8F80
C100
6300
3E00
ENDCHAR
STARTCHAR ABBC
ENCODING 43964
SWIDTH 840 0
DWIDTH 14 0
BBX 13 9 1 0
BITMAP
70E0
C910
8910
8998
8810
D810
5030
3060
1F80
ENDCHAR
STARTCHAR ABBD
ENCODING 43965
SWIDTH 540 0
DWIDTH 9 0
BBX 7 9 1 0
BITMAP
38
44
C6
46
66
1E
84
CC
78
ENDCHAR
STARTCHAR ABBE
ENCODING 43966
SWIDTH 540 0
DWIDTH 9 0
BBX 7 9 1 0
BITMAP
3C
64
C0
B8
C4
C6
C6
C4
78
ENDCHAR
STARTCHAR ABBF
ENCODING 43967
SWIDTH 840 0
DWIDTH 14 0
BBX 13 9 1 0
BITMAP
07C0
0860
0010
0010
9B98
8618
8610
CE30
79E0
ENDCHAR
ENDFONT
